<svg width="0" height="0" style="position:absolute"><symbol fill="none" viewBox="0 0 98 98" id="i_engageble" xmlns="http://www.w3.org/2000/svg"><g filter="url(#afilter0_d)"><path d="M45.173 10.585a10 10 0 017.654 0l19.923 8.253a10 10 0 015.412 5.412l8.253 19.923a10 10 0 010 7.654L78.162 71.75a10 10 0 01-5.412 5.412l-19.923 8.253a10 10 0 01-7.654 0L25.25 77.162a10 10 0 01-5.412-5.412l-8.253-19.923a10 10 0 010-7.654l8.253-19.923a10 10 0 015.412-5.412l19.923-8.253z" fill="url(#apaint0_linear)" fill-opacity=".03"/><path d="M45.556 11.509a9 9 0 016.888 0l19.924 8.253a9 9 0 014.87 4.87l8.253 19.924a9 9 0 010 6.888l-8.253 19.924a9 9 0 01-4.87 4.87l-19.924 8.253a9 9 0 01-6.888 0l-19.924-8.253a9 9 0 01-4.87-4.87l-8.253-19.924a9 9 0 010-6.888l8.253-19.924a9 9 0 014.87-4.87l19.924-8.253z" stroke="url(#apaint1_linear)" stroke-width="2"/></g><path d="M51.858 51.983a.737.737 0 01-.412-.126.696.696 0 01-.204-.205.736.736 0 01-.111-.557.784.784 0 01.11-.267.749.749 0 011.029-.206.746.746 0 01.206 1.03.737.737 0 01-.618.33z" fill="#fff"/><path d="M49.006 54.06a.74.74 0 01-.42-.13c-.515-.354-5.066-3.5-6.046-4.99-.405-.614-.935-1.59-.862-2.956a4.278 4.278 0 011.272-2.824 4.062 4.062 0 012.863-1.188c1.423 0 2.55.9 3.198 1.581.662-.677 1.803-1.581 3.176-1.581 1.069 0 2.085.422 2.863 1.188a4.277 4.277 0 011.273 2.824c.073 1.364-.457 2.34-.862 2.956a.742.742 0 01-1.24-.815c.473-.72.658-1.337.62-2.062-.078-1.438-1.268-2.607-2.654-2.607-1.362 0-2.568 1.659-2.58 1.676a.745.745 0 01-1.225-.017c-.01-.015-1.132-1.66-2.57-1.66-1.385 0-2.575 1.17-2.652 2.608-.04.727.146 1.343.619 2.06.618.94 3.792 3.31 5.647 4.583a.742.742 0 01-.42 1.354z" fill="#fff"/><path d="M68 48.016a5.56 5.56 0 00-3.696-5.232 15.372 15.372 0 00-7.093-8.248 3.742 3.742 0 00-3.737.068 3.77 3.77 0 00-1.864 3.271.742.742 0 101.484 0 2.3 2.3 0 011.138-1.994 2.27 2.27 0 012.267-.043 13.899 13.899 0 016.08 6.629l-.13-.002c-.906 0-1.762.219-2.518.606-.504-1.02-1.185-1.963-2.069-2.867a.742.742 0 00-1.061 1.038c.83.85 1.453 1.732 1.895 2.688a5.537 5.537 0 00-1.796 4.086c0 1.603.683 3.049 1.773 4.063a9.785 9.785 0 01-5.275 4.968 2.806 2.806 0 00-1.789 2.63 2.824 2.824 0 002.83 2.827c.35 0 .704-.065 1.04-.198a15.374 15.374 0 008.825-9.059A5.56 5.56 0 0068 48.016zm-13.065 12.91c-.423.166-.88.115-1.255-.14a1.323 1.323 0 01-.586-1.11c0-.547.34-1.048.846-1.247a11.278 11.278 0 005.963-5.483 5.516 5.516 0 002.677.618 13.89 13.89 0 01-7.645 7.361zm7.515-8.845a4.07 4.07 0 01-4.066-4.065 4.07 4.07 0 014.066-4.066 4.07 4.07 0 014.066 4.066 4.07 4.07 0 01-4.066 4.065zM44.601 38.984a2.806 2.806 0 001.79-2.63 2.832 2.832 0 00-3.87-2.63 15.372 15.372 0 00-8.825 9.06A5.56 5.56 0 0030 48.016a5.56 5.56 0 003.696 5.23 15.365 15.365 0 007.093 8.25c.569.31 1.188.466 1.808.466.664 0 1.328-.179 1.928-.535a3.772 3.772 0 001.865-3.271.742.742 0 10-1.484 0 2.3 2.3 0 01-1.138 1.994 2.271 2.271 0 01-2.267.043 13.887 13.887 0 01-6.081-6.629l.13.002c.917 0 1.783-.224 2.546-.62a11.171 11.171 0 002.041 2.88.74.74 0 001.05.013.742.742 0 00.012-1.05 9.686 9.686 0 01-1.873-2.71 5.535 5.535 0 001.774-4.063c0-1.603-.683-3.05-1.773-4.064a9.77 9.77 0 015.274-4.968zm-4.985 9.032a4.07 4.07 0 01-4.066 4.065 4.07 4.07 0 01-4.066-4.065 4.07 4.07 0 014.066-4.066 4.07 4.07 0 014.066 4.066zm-1.52-4.931a5.515 5.515 0 00-2.676-.618 13.89 13.89 0 017.645-7.36c.422-.167.88-.117 1.255.139.372.253.586.657.586 1.109 0 .547-.34 1.049-.846 1.247a11.266 11.266 0 00-5.964 5.483z" fill="#fff"/><defs><linearGradient id="apaint0_linear" x1="30.348" y1="-439.501" x2="87.778" y2="-438.113" gradientUnits="userSpaceOnUse"><stop stop-color="#FF4E85"/><stop offset="1" stop-color="#D93367"/></linearGradient><linearGradient id="apaint1_linear" x1="49" y1="9" x2="69" y2="87" gradientUnits="userSpaceOnUse"><stop stop-color="#FF4E86"/><stop offset="1" stop-color="#DA3367"/></linearGradient><filter id="afilter0_d" x=".824" y=".824" width="96.352" height="96.352" filterUnits="userSpaceOnUse" color-interpolation-filters="sRGB"><feFlood flood-opacity="0" result="BackgroundImageFix"/><feColorMatrix in="SourceAlpha" values="0 0 0 0 0 0 0 0 0 0 0 0 0 0 0 0 0 0 127 0"/><feOffset dy="1"/><feGaussianBlur stdDeviation="5"/><feColorMatrix values="0 0 0 0 0.85098 0 0 0 0 0.2 0 0 0 0 0.403921 0 0 0 0.46 0"/><feBlend in2="BackgroundImageFix" result="effect1_dropShadow"/><feBlend in="SourceGraphic" in2="effect1_dropShadow" result="shape"/></filter></defs></symbol><symbol fill="none" viewBox="0 0 98 98" id="i_engageble_1" xmlns="http://www.w3.org/2000/svg"><g filter="url(#bfilter0_d)"><path d="M45.173 10.585a10 10 0 017.654 0l19.923 8.253a10 10 0 015.412 5.412l8.253 19.923a10 10 0 010 7.654L78.162 71.75a10 10 0 01-5.412 5.412l-19.923 8.253a10 10 0 01-7.654 0L25.25 77.162a10 10 0 01-5.412-5.412l-8.253-19.923a10 10 0 010-7.654l8.253-19.923a10 10 0 015.412-5.412l19.923-8.253z" fill="url(#bpaint0_linear)" fill-opacity=".03"/><path d="M45.556 11.509a9 9 0 016.888 0l19.924 8.253a9 9 0 014.87 4.87l8.253 19.924a9 9 0 010 6.888l-8.253 19.924a9 9 0 01-4.87 4.87l-19.924 8.253a9 9 0 01-6.888 0l-19.924-8.253a9 9 0 01-4.87-4.87l-8.253-19.924a9 9 0 010-6.888l8.253-19.924a9 9 0 014.87-4.87l19.924-8.253z" stroke="url(#bpaint1_linear)" stroke-width="2"/></g><path d="M42.435 38.62c2.1 0 3.81-1.71 3.81-3.81S44.535 31 42.435 31s-3.81 1.71-3.81 3.81 1.71 3.81 3.81 3.81zm0-5.793c1.093 0 1.982.89 1.982 1.983s-.889 1.982-1.982 1.982a1.985 1.985 0 01-1.982-1.982c0-1.093.889-1.983 1.982-1.983zm11.737 5.792c2.1 0 3.81-1.709 3.81-3.81 0-2.1-1.71-3.809-3.81-3.809s-3.809 1.71-3.809 3.81 1.709 3.81 3.81 3.81zm0-5.792c1.094 0 1.983.89 1.983 1.983s-.89 1.982-1.983 1.982a1.985 1.985 0 01-1.982-1.982c0-1.093.89-1.983 1.983-1.983zm8.194 8.395v1.409a.913.913 0 11-1.827 0v-.495h-1.2a.914.914 0 110-1.828h2.095a.917.917 0 01.932.914zm-19.65.914c-2.572 0-3.353 2.828-3.53 3.695l-1.743 8.488a.914.914 0 01-1.79-.368l1.742-8.487c.653-3.18 2.692-5.156 5.32-5.156h5.752a.914.914 0 110 1.828h-5.751zm12.628 21.936v.014a.912.912 0 01-.933.914h-2.45a.914.914 0 110-1.827h1.556V46.156a.914.914 0 111.827 0v17.916zm5.61-10.12a.914.914 0 01-1.79.367l-1.742-8.488c-.178-.866-.958-3.695-3.53-3.695-1.698 0-2.598 1.412-3.579 3.853l-2.881 7.168a.913.913 0 11-1.695-.682l2.881-7.168c.752-1.87 2.01-4.998 5.273-4.998 2.63 0 4.668 1.975 5.321 5.155l1.743 8.488zM45.56 64.086a.914.914 0 01-.913.914H42.176a.914.914 0 01-.913-.914v-17.93a.914.914 0 111.827 0v17.017h1.554c.505 0 .914.409.914.913z" fill="#fff"/><defs><linearGradient id="bpaint0_linear" x1="30.348" y1="-439.501" x2="87.778" y2="-438.113" gradientUnits="userSpaceOnUse"><stop stop-color="#FF4E85"/><stop offset="1" stop-color="#D93367"/></linearGradient><linearGradient id="bpaint1_linear" x1="49" y1="9" x2="69" y2="87" gradientUnits="userSpaceOnUse"><stop stop-color="#FF4E86"/><stop offset="1" stop-color="#DA3367"/></linearGradient><filter id="bfilter0_d" x=".824" y=".824" width="96.352" height="96.352" filterUnits="userSpaceOnUse" color-interpolation-filters="sRGB"><feFlood flood-opacity="0" result="BackgroundImageFix"/><feColorMatrix in="SourceAlpha" values="0 0 0 0 0 0 0 0 0 0 0 0 0 0 0 0 0 0 127 0"/><feOffset dy="1"/><feGaussianBlur stdDeviation="5"/><feColorMatrix values="0 0 0 0 0.85098 0 0 0 0 0.2 0 0 0 0 0.403921 0 0 0 0.46 0"/><feBlend in2="BackgroundImageFix" result="effect1_dropShadow"/><feBlend in="SourceGraphic" in2="effect1_dropShadow" result="shape"/></filter></defs></symbol><symbol fill="none" viewBox="0 0 15 19" id="i_fire" xmlns="http://www.w3.org/2000/svg"><path d="M8.356 17.594c-.222 0-.404.16-.404.353 0 .195.182.353.404.353 2.053 0 3.655-.59 4.757-1.755 2.48-2.616 1.529-7.179 1.484-7.373-.036-.166-.201-.286-.391-.286h-.004c-.194 0-.36.12-.395.282-.222.979-.944 1.438-1.449 1.646C12.948 2.282 4.37.665 4.281.651a.43.43 0 00-.436.18.322.322 0 00.073.417c.157.137 3.724 3.309.335 7.016A9.13 9.13 0 002.82 6.735c-.105-.084-.255-.12-.392-.084a.383.383 0 00-.278.25c-.004.018-.513 1.706-1.332 3.228-.75 1.395-.843 3.916.464 5.84.932 1.37 2.385 2.144 4.208 2.24h.004c.218.007.412-.138.424-.336v-.025c0-.183-.161-.335-.38-.346-.463-.024-.786-.176-.984-.47-.512-.752-.145-2.228.267-2.99.19-.357.347-.728.464-1.024.17.2.27.36.274.363a.418.418 0 00.307.18c.129.011.258-.031.343-.116 1.25-1.211 1.17-2.433.734-3.313 1.097.523 2.566 1.703 2.287 4.228a.338.338 0 00.125.293.46.46 0 00.347.088c.029-.004.44-.07.824-.353.1.787.1 1.907-.509 2.592-.363.413-.908.614-1.662.614z" fill="currentColor"/></symbol><symbol fill="none" viewBox="0 0 98 98" id="i_free-download" xmlns="http://www.w3.org/2000/svg"><g filter="url(#dfilter0_d)"><path d="M45.173 10.585a10 10 0 017.654 0l19.923 8.253a10 10 0 015.412 5.412l8.253 19.923a10 10 0 010 7.654L78.162 71.75a10 10 0 01-5.412 5.412l-19.923 8.253a10 10 0 01-7.654 0L25.25 77.162a10 10 0 01-5.412-5.412l-8.253-19.923a10 10 0 010-7.654l8.253-19.923a10 10 0 015.412-5.412l19.923-8.253z" fill="url(#dpaint0_linear)" fill-opacity=".03"/><path d="M45.556 11.509a9 9 0 016.888 0l19.924 8.253a9 9 0 014.87 4.87l8.253 19.924a9 9 0 010 6.888l-8.253 19.924a9 9 0 01-4.87 4.87l-19.924 8.253a9 9 0 01-6.888 0l-19.924-8.253a9 9 0 01-4.87-4.87l-8.253-19.924a9 9 0 010-6.888l8.253-19.924a9 9 0 014.87-4.87l19.924-8.253z" stroke="url(#dpaint1_linear)" stroke-width="2"/></g><path d="M48.5 36.1h3a.6.6 0 100-1.2h-3a.6.6 0 100 1.2zM53.5 36.1h1a.6.6 0 100-1.2h-1a.6.6 0 100 1.2z" fill="#fff" stroke="#fff" stroke-width=".2"/><path d="M59.1 48.992V45.1h1.384a1.1 1.1 0 00.873-1.77h0l-3.985-5.18-.001-.002a1.017 1.017 0 00-.271-.238V35.5v0a2.603 2.603 0 00-2.6-2.6h0H41h0a.6.6 0 00-.424.176l-6.5 6.5A.6.6 0 0033.9 40v18.5h0a2.603 2.603 0 002.6 2.6h7.346a3.835 3.835 0 003.404 2h13a3.789 3.789 0 003.85-3.713v-.003a3.7 3.7 0 00-1.98-3.245 5.524 5.524 0 00.355-1.949h0a5.744 5.744 0 00-3.375-5.198zM43.4 59.385c0 .173.013.345.038.515H36.5a1.4 1.4 0 01-1.4-1.4V40.6H39a2.603 2.603 0 002.6-2.6v0-3.9h12.9a1.4 1.4 0 011.4 1.4v2.41a1.017 1.017 0 00-.27.238l-.002.002-3.984 5.179a1.1 1.1 0 00.872 1.771H53.9v3.853a5.99 5.99 0 00-2.438 2.017 4.487 4.487 0 00-2.046-.495 4.32 4.32 0 00-4.391 4.233h0v.002c0 .505.094 1.005.274 1.475a3.715 3.715 0 00-1.899 3.199v.001zM60.252 61.9v0H47.25h0a2.669 2.669 0 01-2.48-1.626 2.35 2.35 0 01-.17-.888 2.5 2.5 0 011.703-2.346h.002a.6.6 0 00.316-.863h0a2.923 2.923 0 01-.396-1.466 3.119 3.119 0 013.188-3.036v0h.002c.68 0 1.345.21 1.9.602h.002c.14.097.313.13.479.093h0a.6.6 0 00.39-.296 4.716 4.716 0 011.714-1.767V55.5a1.1 1.1 0 001.1 1.1h3a1.1 1.1 0 001.1-1.1v-5.15a4.525 4.525 0 012.175 3.84 4.396 4.396 0 01-.48 1.99h0a.6.6 0 00.344.84h.002a2.524 2.524 0 011.759 2.364 2.588 2.588 0 01-2.648 2.516zM56.5 38.984l3.781 4.916H59a1.1 1.1 0 00-1.1 1.1v10.4h-2.8V45a1.1 1.1 0 00-1.1-1.1h-1.281l3.781-4.916zm-20.552.416l4.452-4.452V38a1.4 1.4 0 01-1.4 1.4h-3.052z" fill="#fff" stroke="#fff" stroke-width=".2"/><path d="M40.75 44.996a.75.75 0 00-.75.75v4.5a.75.75 0 001.085.675l7.5-3.75a.75.75 0 000-1.342l-7.5-3.75a.75.75 0 10-.67 1.343l6.158 3.074-5.073 2.536v-3.286a.75.75 0 00-.75-.75z" fill="#fff"/><defs><linearGradient id="dpaint0_linear" x1="30.348" y1="-439.501" x2="87.778" y2="-438.113" gradientUnits="userSpaceOnUse"><stop stop-color="#FF4E85"/><stop offset="1" stop-color="#D93367"/></linearGradient><linearGradient id="dpaint1_linear" x1="49" y1="9" x2="69" y2="87" gradientUnits="userSpaceOnUse"><stop stop-color="#FF4E86"/><stop offset="1" stop-color="#DA3367"/></linearGradient><filter id="dfilter0_d" x=".824" y=".824" width="96.352" height="96.352" filterUnits="userSpaceOnUse" color-interpolation-filters="sRGB"><feFlood flood-opacity="0" result="BackgroundImageFix"/><feColorMatrix in="SourceAlpha" values="0 0 0 0 0 0 0 0 0 0 0 0 0 0 0 0 0 0 127 0"/><feOffset dy="1"/><feGaussianBlur stdDeviation="5"/><feColorMatrix values="0 0 0 0 0.85098 0 0 0 0 0.2 0 0 0 0 0.403921 0 0 0 0.46 0"/><feBlend in2="BackgroundImageFix" result="effect1_dropShadow"/><feBlend in="SourceGraphic" in2="effect1_dropShadow" result="shape"/></filter></defs></symbol><symbol fill="none" viewBox="0 0 98 98" id="i_free-shares" xmlns="http://www.w3.org/2000/svg"><g filter="url(#efilter0_d)"><path d="M45.173 10.585a10 10 0 017.654 0l19.923 8.253a10 10 0 015.412 5.412l8.253 19.923a10 10 0 010 7.654L78.162 71.75a10 10 0 01-5.412 5.412l-19.923 8.253a10 10 0 01-7.654 0L25.25 77.162a10 10 0 01-5.412-5.412l-8.253-19.923a10 10 0 010-7.654l8.253-19.923a10 10 0 015.412-5.412l19.923-8.253z" fill="url(#epaint0_linear)" fill-opacity=".03"/><path d="M45.556 11.509a9 9 0 016.888 0l19.924 8.253a9 9 0 014.87 4.87l8.253 19.924a9 9 0 010 6.888l-8.253 19.924a9 9 0 01-4.87 4.87l-19.924 8.253a9 9 0 01-6.888 0l-19.924-8.253a9 9 0 01-4.87-4.87l-8.253-19.924a9 9 0 010-6.888l8.253-19.924a9 9 0 014.87-4.87l19.924-8.253z" stroke="url(#epaint1_linear)" stroke-width="2"/></g><path d="M48.5 36.1h3a.6.6 0 100-1.2h-3a.6.6 0 100 1.2zM53.5 36.1h1a.6.6 0 100-1.2h-1a.6.6 0 100 1.2z" fill="#fff" stroke="#fff" stroke-width=".2"/><path d="M59.1 48.992V45.1h1.384a1.1 1.1 0 00.873-1.77h0l-3.985-5.18-.001-.002a1.017 1.017 0 00-.271-.238V35.5v0a2.603 2.603 0 00-2.6-2.6h0H41h0a.6.6 0 00-.424.176l-6.5 6.5A.6.6 0 0033.9 40v18.5h0a2.603 2.603 0 002.6 2.6h7.346a3.835 3.835 0 003.404 2h13a3.789 3.789 0 003.85-3.713v-.003a3.7 3.7 0 00-1.98-3.245 5.524 5.524 0 00.355-1.949h0a5.744 5.744 0 00-3.375-5.198zM43.4 59.385c0 .173.013.345.038.515H36.5a1.4 1.4 0 01-1.4-1.4V40.6H39a2.603 2.603 0 002.6-2.6v0-3.9h12.9a1.4 1.4 0 011.4 1.4v2.41a1.017 1.017 0 00-.27.238l-.002.002-3.984 5.179a1.1 1.1 0 00.872 1.771H53.9v3.853a5.99 5.99 0 00-2.438 2.017 4.487 4.487 0 00-2.046-.495 4.32 4.32 0 00-4.391 4.233h0v.002c0 .505.094 1.005.274 1.475a3.715 3.715 0 00-1.899 3.199v.001zM60.252 61.9v0H47.25h0a2.669 2.669 0 01-2.48-1.626 2.35 2.35 0 01-.17-.888 2.5 2.5 0 011.703-2.346h.002a.6.6 0 00.316-.863h0a2.923 2.923 0 01-.396-1.466 3.119 3.119 0 013.188-3.036v0h.002c.68 0 1.345.21 1.9.602h.002c.14.097.313.13.479.093h0a.6.6 0 00.39-.296 4.716 4.716 0 011.714-1.767V55.5a1.1 1.1 0 001.1 1.1h3a1.1 1.1 0 001.1-1.1v-5.15a4.525 4.525 0 012.175 3.84 4.396 4.396 0 01-.48 1.99h0a.6.6 0 00.344.84h.002a2.524 2.524 0 011.759 2.364 2.588 2.588 0 01-2.648 2.516zM56.5 38.984l3.781 4.916H59a1.1 1.1 0 00-1.1 1.1v10.4h-2.8V45a1.1 1.1 0 00-1.1-1.1h-1.281l3.781-4.916zm-20.552.416l4.452-4.452V38a1.4 1.4 0 01-1.4 1.4h-3.052z" fill="#fff" stroke="#fff" stroke-width=".2"/><path d="M40.75 44.996a.75.75 0 00-.75.75v4.5a.75.75 0 001.085.675l7.5-3.75a.75.75 0 000-1.342l-7.5-3.75a.75.75 0 10-.67 1.343l6.158 3.074-5.073 2.536v-3.286a.75.75 0 00-.75-.75z" fill="#fff"/><defs><linearGradient id="epaint0_linear" x1="30.348" y1="-439.501" x2="87.778" y2="-438.113" gradientUnits="userSpaceOnUse"><stop stop-color="#FF4E85"/><stop offset="1" stop-color="#D93367"/></linearGradient><linearGradient id="epaint1_linear" x1="49" y1="9" x2="69" y2="87" gradientUnits="userSpaceOnUse"><stop stop-color="#FF4E86"/><stop offset="1" stop-color="#DA3367"/></linearGradient><filter id="efilter0_d" x=".824" y=".824" width="96.352" height="96.352" filterUnits="userSpaceOnUse" color-interpolation-filters="sRGB"><feFlood flood-opacity="0" result="BackgroundImageFix"/><feColorMatrix in="SourceAlpha" values="0 0 0 0 0 0 0 0 0 0 0 0 0 0 0 0 0 0 127 0"/><feOffset dy="1"/><feGaussianBlur stdDeviation="5"/><feColorMatrix values="0 0 0 0 0.85098 0 0 0 0 0.2 0 0 0 0 0.403921 0 0 0 0.46 0"/><feBlend in2="BackgroundImageFix" result="effect1_dropShadow"/><feBlend in="SourceGraphic" in2="effect1_dropShadow" result="shape"/></filter></defs></symbol><symbol fill="none" viewBox="0 0 98 98" id="i_listen-free" xmlns="http://www.w3.org/2000/svg"><g filter="url(#ffilter0_d)"><path d="M45.173 10.585a10 10 0 017.654 0l19.923 8.253a10 10 0 015.412 5.412l8.253 19.923a10 10 0 010 7.654L78.162 71.75a10 10 0 01-5.412 5.412l-19.923 8.253a10 10 0 01-7.654 0L25.25 77.162a10 10 0 01-5.412-5.412l-8.253-19.923a10 10 0 010-7.654l8.253-19.923a10 10 0 015.412-5.412l19.923-8.253z" fill="url(#fpaint0_linear)" fill-opacity=".03"/><path d="M45.556 11.509a9 9 0 016.888 0l19.924 8.253a9 9 0 014.87 4.87l8.253 19.924a9 9 0 010 6.888l-8.253 19.924a9 9 0 01-4.87 4.87l-19.924 8.253a9 9 0 01-6.888 0l-19.924-8.253a9 9 0 01-4.87-4.87l-8.253-19.924a9 9 0 010-6.888l8.253-19.924a9 9 0 014.87-4.87l19.924-8.253z" stroke="url(#fpaint1_linear)" stroke-width="2"/></g><path d="M44.917 46.662a.917.917 0 00-.917.917v5.5a.916.916 0 001.327.824l9.165-4.583a.917.917 0 000-1.64l-9.165-4.583a.917.917 0 00-.82 1.64l7.526 3.758-6.2 3.1V47.58a.917.917 0 00-.916-.917z" fill="#fff"/><path d="M63.771 35.9h0-4.767a.688.688 0 00-.493.21l.072.07-.072-.07a.721.721 0 000 1.005l.071-.069-.07.07c.13.133.307.209.492.209h4.767c.447 0 .876.182 1.192.508.317.326.496.768.496 1.23v18.374c0 .462-.179.904-.496 1.23a1.664 1.664 0 01-1.192.508h-24.43a.688.688 0 00-.492.21.721.721 0 000 1.005c.13.134.308.21.493.21h24.43a3.042 3.042 0 002.176-.928 3.21 3.21 0 00.902-2.234v0-18.376 0a3.21 3.21 0 00-.902-2.234l-.071.07.071-.07a3.042 3.042 0 00-2.177-.928zM33.98 35.9h-.001c-.817.001-1.6.335-2.177.928a3.21 3.21 0 00-.902 2.234v18.376h0a3.21 3.21 0 00.902 2.234c.577.593 1.36.927 2.177.928h2.98a.688.688 0 00.492-.21.721.721 0 000-1.005.688.688 0 00-.493-.21H33.98c-.447 0-.875-.182-1.192-.508a1.764 1.764 0 01-.495-1.23V39.064c0-.462.178-.904.495-1.23a1.663 1.663 0 011.192-.508h22.642a.688.688 0 00.493-.21.721.721 0 000-1.005.688.688 0 00-.493-.21H33.979z" fill="#fff" stroke="#fff" stroke-width=".2"/><path d="M33.979 56.925a.704.704 0 00.696-.712.704.704 0 00-.696-.713.704.704 0 00-.696.713c0 .39.309.712.696.712zM33.979 54.475a.704.704 0 00.696-.713.704.704 0 00-.696-.712.704.704 0 00-.696.712c0 .391.309.713.696.713zM63.87 51.313v-6.126a.721.721 0 00-.202-.502.688.688 0 00-.986 0 .722.722 0 00-.203.502v6.126c0 .188.073.368.203.502a.688.688 0 00.986 0 .721.721 0 00.203-.502z" fill="#fff" stroke="#fff" stroke-width=".2"/><defs><linearGradient id="fpaint0_linear" x1="30.348" y1="-439.501" x2="87.778" y2="-438.113" gradientUnits="userSpaceOnUse"><stop stop-color="#FF4E85"/><stop offset="1" stop-color="#D93367"/></linearGradient><linearGradient id="fpaint1_linear" x1="49" y1="9" x2="69" y2="87" gradientUnits="userSpaceOnUse"><stop stop-color="#FF4E86"/><stop offset="1" stop-color="#DA3367"/></linearGradient><filter id="ffilter0_d" x=".824" y=".824" width="96.352" height="96.352" filterUnits="userSpaceOnUse" color-interpolation-filters="sRGB"><feFlood flood-opacity="0" result="BackgroundImageFix"/><feColorMatrix in="SourceAlpha" values="0 0 0 0 0 0 0 0 0 0 0 0 0 0 0 0 0 0 127 0"/><feOffset dy="1"/><feGaussianBlur stdDeviation="5"/><feColorMatrix values="0 0 0 0 0.85098 0 0 0 0 0.2 0 0 0 0 0.403921 0 0 0 0.46 0"/><feBlend in2="BackgroundImageFix" result="effect1_dropShadow"/><feBlend in="SourceGraphic" in2="effect1_dropShadow" result="shape"/></filter></defs></symbol><symbol fill="none" viewBox="0 0 18 17" id="i_message" xmlns="http://www.w3.org/2000/svg"><path d="M5.408 16.268a.66.66 0 01-.58-.405l-.941-2.233h-.211A3.684 3.684 0 010 9.954V3.676A3.684 3.684 0 013.676 0h10.648A3.684 3.684 0 0118 3.676v6.278a3.684 3.684 0 01-3.676 3.676H7.228l-1.196 2.286a.66.66 0 01-.624.352zM3.649 1.319a2.357 2.357 0 00-2.356 2.357v6.278a2.357 2.357 0 002.356 2.357h.642a.66.66 0 01.607.404l.571 1.346.73-1.399a.66.66 0 01.58-.351h7.537a2.357 2.357 0 002.356-2.357V3.676a2.357 2.357 0 00-2.356-2.357H3.649z" fill="currentColor"/><path d="M5.47 8.134a.88.88 0 100-1.759.88.88 0 000 1.759zM8.987 8.134a.88.88 0 100-1.759.88.88 0 000 1.759zM12.504 8.134a.88.88 0 100-1.759.88.88 0 000 1.759z" fill="currentColor"/></symbol><symbol fill="none" viewBox="0 0 98 98" id="i_no-ads" xmlns="http://www.w3.org/2000/svg"><g filter="url(#hfilter0_d)"><path d="M45.173 10.585a10 10 0 017.654 0l19.923 8.253a10 10 0 015.412 5.412l8.253 19.923a10 10 0 010 7.654L78.162 71.75a10 10 0 01-5.412 5.412l-19.923 8.253a10 10 0 01-7.654 0L25.25 77.162a10 10 0 01-5.412-5.412l-8.253-19.923a10 10 0 010-7.654l8.253-19.923a10 10 0 015.412-5.412l19.923-8.253z" fill="url(#hpaint0_linear)" fill-opacity=".03"/><path d="M45.556 11.509a9 9 0 016.888 0l19.924 8.253a9 9 0 014.87 4.87l8.253 19.924a9 9 0 010 6.888l-8.253 19.924a9 9 0 01-4.87 4.87l-19.924 8.253a9 9 0 01-6.888 0l-19.924-8.253a9 9 0 01-4.87-4.87l-8.253-19.924a9 9 0 010-6.888l8.253-19.924a9 9 0 014.87-4.87l19.924-8.253z" stroke="url(#hpaint1_linear)" stroke-width="2"/></g><path d="M50.711 36.639h0c.119.224.176.486.176.774 0 .463-.15.856-.456 1.156-.22.214-.497.36-.821.435v.102a.554.554 0 01-1.108 0v-.092a1.763 1.763 0 01-.925-.49h0c-.264-.272-.417-.626-.461-1.041 0 0 0 0 0 0l.15-.016a.433.433 0 01.108-.335l3.337-.493zm0 0a1.599 1.599 0 00-.518-.567h0m.518.567l-.518-.567m0 0c-.214-.145-.525-.284-.943-.426h0m.943.426l-.943-.426m0 0c-.433-.147-.616-.274-.688-.34h0m.688.34l-.688-.34m0 0c-.075-.07-.12-.168-.12-.342 0-.18.05-.292.143-.38.093-.087.244-.144.473-.144.213 0 .348.06.45.177h0m-.946.688l.946-.688m0 0c.09.101.15.244.168.435m-.168-.435l1.182.77m0 0h0a.587.587 0 01-.432.19.588.588 0 01-.582-.525m1.014.335a.584.584 0 00.15-.444h0m-.15.444l.15-.444m-1.164.109l.15-.015-.15.015s0 0 0 0zm1.164-.11c-.037-.412-.169-.767-.4-1.044l.4 1.045zm-3.141 1.896a.586.586 0 00-.436.194l3.177-3.134a1.572 1.572 0 00-.817-.512v-.18a.556.556 0 00-1.11 0v.175c-.313.078-.581.225-.794.44-.297.302-.444.693-.444 1.151 0 .436.134.811.407 1.103.258.276.66.489 1.208.661.45.156.633.288.703.356h0c.08.079.124.18.124.328a.443.443 0 01-.162.364c-.12.102-.29.161-.52.161-.272 0-.457-.07-.576-.185a.615.615 0 01-.179-.4h0a.59.59 0 00-.581-.522zm2.88-1.552a.433.433 0 00.111-.33l-.111.33z" fill="#fff" stroke="#fff" stroke-width=".3"/><path d="M64.823 35.469H56.31a.58.58 0 100 1.159h8.512a1.17 1.17 0 011.168 1.168V56.02a1.17 1.17 0 01-1.168 1.168H33.177a1.17 1.17 0 01-1.168-1.168V37.796a1.17 1.17 0 011.168-1.168h8.512a.58.58 0 100-1.16h-8.512a2.33 2.33 0 00-2.327 2.328v18.223a2.33 2.33 0 002.327 2.328h31.646a2.33 2.33 0 002.327-2.328V37.796a2.33 2.33 0 00-2.327-2.327zM56.1 62.08h-4.075v-2.595a.58.58 0 10-1.159 0v2.595h-3.733v-2.595a.58.58 0 10-1.159 0v2.595h-4.075a1.55 1.55 0 00-1.549 1.549 1.55 1.55 0 001.55 1.549h14.2a1.55 1.55 0 001.55-1.55 1.55 1.55 0 00-1.55-1.548zm0 1.939H41.9a.39.39 0 010-.78h14.2a.39.39 0 010 .78z" fill="#fff" stroke="#fff" stroke-width=".3"/><path d="M56.55 51.336a.58.58 0 100 1.159h1.414c.32 0 .58-.26.58-.58V45.71a.58.58 0 00-.58-.58H40.037a.58.58 0 00-.58.58v6.205c0 .32.26.58.58.58h8.056a.58.58 0 100-1.16h-7.477V46.29h16.769v5.047h-.835zM47.678 40.859h0a.58.58 0 00-.383.028h0l-1.46.635.266-.946-.144-.04.144.04a.58.58 0 00-.199-.613l-.093.118.093-.118a4.988 4.988 0 01-1.916-3.94v0a5.02 5.02 0 015.013-5.014 5.02 5.02 0 015.014 5.014 5.02 5.02 0 01-6.335 4.836zm-2.794-.237l-.498 1.762s0 0 0 0 0 0 0 0a.58.58 0 00.79.688l2.4-1.043a6.18 6.18 0 007.597-6.006 6.18 6.18 0 00-6.174-6.173 6.18 6.18 0 00-6.172 6.173c0 1.771.745 3.427 2.057 4.599z" fill="#fff" stroke="#fff" stroke-width=".3"/><path d="M52.256 53.61l2.503 2.503c.176.176.41.273.66.273a.926.926 0 00.658-.273l1.059-1.059h0a.933.933 0 000-1.317l-.044-.044h0l-2.46-2.46 1.215-.815s0 0 0 0a.932.932 0 00-.302-1.68h0l-6.128-1.467h0a.927.927 0 00-.876.248l3.715 6.09zm0 0l-.815 1.214s0 0 0 0a.932.932 0 01-.939.399h0a.932.932 0 01-.741-.7h0l-1.467-6.129s0 0 0 0a.926.926 0 01.247-.875l3.715 6.09zm-2.748-5.125l5.263 1.26-1.37.918a.579.579 0 00-.086.891m-3.807-3.07l3.807 3.07h0m-3.807-3.07l1.26 5.264m-1.26-5.263l1.26 5.263m2.547-2.194l2.84 2.841-.737.737-2.84-2.84m.737-.738l-2.547 2.194m0 0l.918-1.37h0a.58.58 0 01.425-.254h.002a.58.58 0 01.465.167m0 0l-.107.107.106-.107h0z" fill="#fff" stroke="#fff" stroke-width=".3"/><defs><linearGradient id="hpaint0_linear" x1="30.348" y1="-439.501" x2="87.778" y2="-438.113" gradientUnits="userSpaceOnUse"><stop stop-color="#FF4E85"/><stop offset="1" stop-color="#D93367"/></linearGradient><linearGradient id="hpaint1_linear" x1="49" y1="9" x2="69" y2="87" gradientUnits="userSpaceOnUse"><stop stop-color="#FF4E86"/><stop offset="1" stop-color="#DA3367"/></linearGradient><filter id="hfilter0_d" x=".824" y=".824" width="96.352" height="96.352" filterUnits="userSpaceOnUse" color-interpolation-filters="sRGB"><feFlood flood-opacity="0" result="BackgroundImageFix"/><feColorMatrix in="SourceAlpha" values="0 0 0 0 0 0 0 0 0 0 0 0 0 0 0 0 0 0 127 0"/><feOffset dy="1"/><feGaussianBlur stdDeviation="5"/><feColorMatrix values="0 0 0 0 0.85098 0 0 0 0 0.2 0 0 0 0 0.403921 0 0 0 0.46 0"/><feBlend in2="BackgroundImageFix" result="effect1_dropShadow"/><feBlend in="SourceGraphic" in2="effect1_dropShadow" result="shape"/></filter></defs></symbol><symbol fill="none" viewBox="0 0 13 16" id="i_person" xmlns="http://www.w3.org/2000/svg"><path d="M11.05 9.02c-.325-.25-.794-.179-1.047.18-.253.321-.18.787.18 1.037.867.609 1.336 1.396 1.336 2.184 0 1.396-1.697 2.076-4.983 2.076-3.286 0-4.983-.716-4.983-2.076 0-1.754 2.275-3.258 4.983-3.258 2.311 0 4.08-2.684 4.08-5.01C10.617 1.86 8.776 0 6.537 0s-4.08 1.861-4.08 4.152c0 1.36.613 2.864 1.625 3.866C1.66 8.734 0 10.452 0 12.42 0 14.783 2.203 16 6.5 16c4.333 0 6.5-1.217 6.5-3.58 0-1.288-.686-2.505-1.95-3.4zM3.936 4.188c0-1.468 1.156-2.649 2.564-2.649 1.408 0 2.564 1.181 2.564 2.649 0 1.54-1.264 3.508-2.564 3.508C5.164 7.66 3.936 5.69 3.936 4.188z" fill="currentColor"/></symbol><symbol viewBox="0 0 32 32" id="i_plus" xmlns="http://www.w3.org/2000/svg"><path fill="currentColor" d="M28 14H18V4a2 2 0 00-4 0v10H4a2 2 0 000 4h10v10a2 2 0 004 0V18h10a2 2 0 000-4z"/></symbol><symbol fill="none" viewBox="0 0 98 98" id="i_rewards" xmlns="http://www.w3.org/2000/svg"><g filter="url(#kfilter0_d)"><path d="M45.173 10.585a10 10 0 017.654 0l19.923 8.253a10 10 0 015.412 5.412l8.253 19.923a10 10 0 010 7.654L78.162 71.75a10 10 0 01-5.412 5.412l-19.923 8.253a10 10 0 01-7.654 0L25.25 77.162a10 10 0 01-5.412-5.412l-8.253-19.923a10 10 0 010-7.654l8.253-19.923a10 10 0 015.412-5.412l19.923-8.253z" fill="url(#kpaint0_linear)" fill-opacity=".03"/><path d="M45.556 11.509a9 9 0 016.888 0l19.924 8.253a9 9 0 014.87 4.87l8.253 19.924a9 9 0 010 6.888l-8.253 19.924a9 9 0 01-4.87 4.87l-19.924 8.253a9 9 0 01-6.888 0l-19.924-8.253a9 9 0 01-4.87-4.87l-8.253-19.924a9 9 0 010-6.888l8.253-19.924a9 9 0 014.87-4.87l19.924-8.253z" stroke="url(#kpaint1_linear)" stroke-width="2"/></g><path d="M54.036 52.24c-.71 0-1.289-.5-1.289-1.116 0-.615.578-1.116 1.29-1.116.71 0 1.288.5 1.288 1.116a.586.586 0 001.172 0c0-1.074-.8-1.977-1.875-2.222v-.304a.586.586 0 00-1.172 0v.304c-1.075.245-1.875 1.148-1.875 2.222 0 1.261 1.104 2.287 2.461 2.287.71 0 1.29.501 1.29 1.116 0 .615-.58 1.116-1.29 1.116-.71 0-1.289-.5-1.289-1.116a.586.586 0 00-1.172 0c0 1.074.8 1.977 1.875 2.222v.253a.586.586 0 001.172 0v-.253c1.075-.245 1.875-1.148 1.875-2.222 0-1.261-1.104-2.287-2.46-2.287zM60.454 48.754a7.635 7.635 0 00-3.119-2.76.586.586 0 00-.508 1.057 6.484 6.484 0 013.657 5.812c0 1.054-.26 2.1-.751 3.023a.586.586 0 101.034.55 7.632 7.632 0 00-.313-7.682zM54.957 45.246h-.039a.586.586 0 100 1.172H54.955a.586.586 0 00.002-1.172zM51.25 58.676a6.484 6.484 0 01-3.656-5.813c0-1.054.26-2.099.751-3.023a.586.586 0 10-1.035-.55 7.632 7.632 0 00.314 7.682 7.635 7.635 0 003.119 2.76.583.583 0 00.782-.274.586.586 0 00-.275-.782zM53.16 59.309h-.034a.585.585 0 10-.006 1.171h.04a.586.586 0 000-1.171z" fill="#fff"/><path d="M64.1 52.863c0-4.6-3.104-8.489-7.327-9.683a2.798 2.798 0 00-.152-.295h1.344a2.798 2.798 0 002.795-2.795 2.798 2.798 0 00-2.795-2.796h-4.51c.248-.417.391-.903.391-1.423a2.798 2.798 0 00-2.795-2.795H36.695A2.798 2.798 0 0033.9 35.87a2.798 2.798 0 002.795 2.795h4.51c-.248.418-.391.904-.391 1.424 0 .52.143 1.006.39 1.423H39.86a2.798 2.798 0 00-2.795 2.796c0 .841.374 1.596.964 2.109a2.789 2.789 0 000 4.219 2.789 2.789 0 000 4.218 2.789 2.789 0 00-.964 2.11 2.798 2.798 0 002.795 2.795h6.862a10.034 10.034 0 007.318 3.164c5.548 0 10.061-4.513 10.061-10.06zm-6.135-14.197c.785 0 1.423.64 1.423 1.424 0 .785-.638 1.423-1.423 1.423H43.609a1.425 1.425 0 01-1.423-1.423c0-.785.639-1.424 1.423-1.424h14.356zm-21.27-1.371a1.425 1.425 0 01-1.423-1.424c0-.785.639-1.423 1.423-1.423h14.356c.785 0 1.423.638 1.423 1.423s-.638 1.423-1.423 1.423H36.695zm3.164 5.59h12.887a10.04 10.04 0 00-5.797 2.847h-7.09a1.425 1.425 0 01-1.423-1.423c0-.785.639-1.424 1.423-1.424zm0 4.219h5.936a10.03 10.03 0 00-1.386 2.847h-4.55a1.425 1.425 0 01-1.423-1.424c0-.785.639-1.423 1.423-1.423zm0 4.219h4.238a10.087 10.087 0 00-.034 2.846H39.86a1.425 1.425 0 01-1.423-1.423c0-.785.639-1.423 1.423-1.423zm0 7.065a1.425 1.425 0 01-1.423-1.423c0-.785.639-1.424 1.423-1.424h4.482a10.021 10.021 0 001.294 2.847H39.86zm14.18 3.164c-4.791 0-8.689-3.898-8.689-8.689 0-4.79 3.898-8.689 8.69-8.689 4.79 0 8.688 3.898 8.688 8.69 0 4.79-3.898 8.688-8.689 8.688z" fill="#fff" stroke="#fff" stroke-width=".2"/><defs><linearGradient id="kpaint0_linear" x1="30.348" y1="-439.501" x2="87.778" y2="-438.113" gradientUnits="userSpaceOnUse"><stop stop-color="#FF4E85"/><stop offset="1" stop-color="#D93367"/></linearGradient><linearGradient id="kpaint1_linear" x1="49" y1="9" x2="69" y2="87" gradientUnits="userSpaceOnUse"><stop stop-color="#FF4E86"/><stop offset="1" stop-color="#DA3367"/></linearGradient><filter id="kfilter0_d" x=".824" y=".824" width="96.352" height="96.352" filterUnits="userSpaceOnUse" color-interpolation-filters="sRGB"><feFlood flood-opacity="0" result="BackgroundImageFix"/><feColorMatrix in="SourceAlpha" values="0 0 0 0 0 0 0 0 0 0 0 0 0 0 0 0 0 0 127 0"/><feOffset dy="1"/><feGaussianBlur stdDeviation="5"/><feColorMatrix values="0 0 0 0 0.85098 0 0 0 0 0.2 0 0 0 0 0.403921 0 0 0 0.46 0"/><feBlend in2="BackgroundImageFix" result="effect1_dropShadow"/><feBlend in="SourceGraphic" in2="effect1_dropShadow" result="shape"/></filter></defs></symbol><symbol fill="none" viewBox="0 0 18 17" id="i_star" xmlns="http://www.w3.org/2000/svg"><path d="M14.398 10.862a.517.517 0 00-.142.383l.78 4.377c.07.418-.107.87-.461 1.113-.355.244-.815.279-1.24.105l-4.002-2.048a.46.46 0 00-.425 0L4.906 16.84c-.177.104-.354.139-.531.139-.248 0-.461-.07-.674-.209a1.139 1.139 0 01-.46-1.113l.78-4.378c.035-.139-.036-.278-.143-.382L.623 7.77a1.132 1.132 0 01-.284-1.183 1.15 1.15 0 01.922-.765l4.462-.66c.141-.035.283-.105.354-.244L8.092.924A1.186 1.186 0 019.12.298c.461 0 .851.243 1.028.626l2.017 3.995c.07.14.177.209.354.244l4.462.626c.46.07.815.347.957.765.142.417.036.869-.283 1.182l-3.257 3.126z" fill="currentColor"/></symbol></svg>