<svg width="98" height="98" viewBox="0 0 98 98" fill="none" xmlns="http://www.w3.org/2000/svg">
  <g filter="url(#filter0_d)">
    <path d="M45.1732 10.5851C47.6234 9.57019 50.3766 9.57019 52.8268 10.5851L72.7503 18.8377C75.2006 19.8526 77.1474 21.7994 78.1623 24.2497L86.4149 44.1732C87.4298 46.6234 87.4298 49.3766 86.4149 51.8268L78.1623 71.7503C77.1474 74.2006 75.2006 76.1474 72.7503 77.1623L52.8268 85.4149C50.3766 86.4298 47.6234 86.4298 45.1732 85.4149L25.2497 77.1623C22.7994 76.1474 20.8526 74.2006 19.8377 71.7503L11.5851 51.8268C10.5702 49.3766 10.5702 46.6234 11.5851 44.1732L19.8377 24.2497C20.8526 21.7994 22.7994 19.8526 25.2497 18.8377L45.1732 10.5851Z" fill="url(#paint0_linear)" fill-opacity="0.03"/>
    <path d="M45.5558 11.509C47.7611 10.5956 50.2389 10.5956 52.4442 11.509L72.3676 19.7616C74.5729 20.675 76.325 22.4271 77.2384 24.6324L85.491 44.5558C86.4044 46.7611 86.4044 49.2389 85.491 51.4442L77.2384 71.3676C76.325 73.5729 74.5729 75.325 72.3676 76.2384L52.4442 84.491C50.2389 85.4044 47.7611 85.4044 45.5558 84.491L25.6324 76.2384C23.4271 75.325 21.675 73.5729 20.7616 71.3676L12.509 51.4442C11.5956 49.2389 11.5956 46.7611 12.509 44.5558L20.7616 24.6324C21.675 22.4271 23.4271 20.675 25.6324 19.7616L45.5558 11.509Z" stroke="url(#paint1_linear)" stroke-width="2"/>
  </g>
  <path d="M51.8584 51.9826C51.81 51.9826 51.761 51.9774 51.7134 51.9678C51.6662 51.9583 51.6192 51.944 51.5749 51.9255C51.5293 51.9069 51.4864 51.884 51.4464 51.8571C51.4055 51.8304 51.3676 51.7994 51.3336 51.7652C51.2994 51.731 51.2681 51.6933 51.2415 51.6524C51.2148 51.6124 51.1919 51.5692 51.1733 51.524C51.1548 51.4793 51.1406 51.4326 51.131 51.3851C51.1211 51.3375 51.1162 51.2885 51.1162 51.2404C51.1162 51.1923 51.1211 51.1433 51.131 51.0949C51.1406 51.0482 51.1548 51.0015 51.1733 50.9563C51.1919 50.9117 51.2148 50.8685 51.2415 50.8284C51.2681 50.7876 51.2994 50.7499 51.3336 50.7157C51.5059 50.5429 51.7624 50.464 52.0036 50.5124C52.0506 50.522 52.0973 50.5362 52.1425 50.5548C52.1872 50.5733 52.2301 50.5962 52.2701 50.6229C52.311 50.6504 52.3489 50.6815 52.3829 50.7157C52.4171 50.7499 52.4484 50.7876 52.4756 50.8284C52.5026 50.8685 52.5255 50.9117 52.5441 50.9563C52.5626 51.0015 52.5768 51.0482 52.5864 51.0949C52.5959 51.1433 52.6006 51.1923 52.6006 51.2404C52.6006 51.2885 52.5959 51.3375 52.5864 51.3851C52.5768 51.4326 52.5626 51.4793 52.5441 51.524C52.5255 51.5692 52.5026 51.6124 52.4756 51.6524C52.4484 51.6933 52.4171 51.731 52.3829 51.7652C52.3486 51.7994 52.311 51.8304 52.2701 51.8571C52.2301 51.884 52.1872 51.9069 52.1425 51.9255C52.0973 51.944 52.0506 51.9583 52.0036 51.9678C51.9555 51.9774 51.9065 51.9826 51.8584 51.9826Z" fill="white"/>
  <path d="M49.0057 54.0598C48.861 54.0598 48.7149 54.0175 48.5864 53.9294C48.071 53.5757 43.5204 50.4292 42.5396 48.9408C42.1346 48.3262 41.6046 47.3509 41.6777 45.9836C41.7348 44.9156 42.1868 43.913 42.9504 43.1601C43.7283 42.3936 44.7447 41.9715 45.8128 41.9715C47.2363 41.9715 48.3632 42.8725 49.0112 43.5533C49.673 42.8763 50.8144 41.9715 52.1872 41.9715C53.2555 41.9715 54.272 42.3936 55.0496 43.1601C55.8135 43.913 56.2655 44.9156 56.3226 45.9836C56.3956 47.3477 55.8662 48.3241 55.4612 48.9399C55.2363 49.2823 54.7759 49.3774 54.4335 49.1524C54.0911 48.9272 53.9957 48.4671 54.221 48.1247C54.6941 47.4048 54.8794 46.7881 54.8402 46.0628C54.7634 44.6254 53.5733 43.4558 52.1872 43.4558C50.8246 43.4558 49.6191 45.115 49.6072 45.1319C49.4663 45.3325 49.2344 45.4496 48.9903 45.447C48.745 45.4435 48.5174 45.3194 48.382 45.1153C48.3719 45.1005 47.2499 43.4558 45.8128 43.4558C44.4267 43.4558 43.2366 44.6254 43.1598 46.0628C43.1209 46.7899 43.3059 47.4065 43.7787 48.1238C44.3971 49.0623 47.5709 51.4323 49.4263 52.7056C49.7641 52.9376 49.8502 53.3997 49.6182 53.7375C49.4744 53.9471 49.2419 54.0598 49.0057 54.0598Z" fill="white"/>
  <path d="M67.9998 48.0156C67.9998 45.6053 66.4554 43.5489 64.304 42.7841C63.0254 39.2645 60.5124 36.3401 57.2109 34.5357C56.0312 33.8906 54.6344 33.9161 53.4744 34.6041C52.3066 35.2967 51.6097 36.5193 51.6097 37.8752C51.6097 38.2852 51.9419 38.6174 52.3519 38.6174C52.7618 38.6174 53.094 38.2852 53.094 37.8752C53.094 37.049 53.5193 36.3033 54.2317 35.8809C54.9362 35.4631 55.7836 35.4469 56.4988 35.838C59.2211 37.3261 61.3497 39.6556 62.5795 42.4669C62.5363 42.4661 62.4931 42.4655 62.4497 42.4655C61.5434 42.4655 60.687 42.6838 59.9306 43.0708C59.427 42.0509 58.746 41.1078 57.8623 40.2041C57.5759 39.911 57.1059 39.9058 56.8128 40.1922C56.5197 40.479 56.5145 40.9489 56.8009 41.242C57.6318 42.0918 58.2543 42.9743 58.6964 43.9304C57.5924 44.9457 56.8995 46.4011 56.8995 48.0156C56.8995 49.6186 57.5825 51.065 58.6729 52.0791C57.6252 54.3373 55.7201 56.1368 53.3982 57.0474C52.3116 57.4736 51.6094 58.5057 51.6094 59.6767C51.6094 60.6125 52.0712 61.4858 52.8444 62.0125C53.3216 62.3373 53.8777 62.504 54.4387 62.504C54.7898 62.504 55.1426 62.4387 55.4792 62.3062C59.5911 60.6868 62.7981 57.3913 64.304 53.2472C66.4554 52.4824 67.9998 50.426 67.9998 48.0156ZM54.9353 60.9251C54.5123 61.0915 54.0551 61.0407 53.6803 60.7853C53.3077 60.5317 53.094 60.1275 53.094 59.6767C53.094 59.129 53.4341 58.6278 53.9403 58.4292C56.5327 57.4127 58.6741 55.4349 59.9033 52.9463C60.6664 53.342 61.5324 53.5655 62.4497 53.5655C62.4931 53.5655 62.5363 53.5652 62.5795 53.5641C61.112 56.9199 58.374 59.5709 54.9353 60.9251ZM62.4497 52.0812C60.208 52.0812 58.3842 50.2576 58.3842 48.0156C58.3842 45.7737 60.208 43.9499 62.4497 43.9499C64.6916 43.9499 66.5155 45.7737 66.5155 48.0156C66.5155 50.2576 64.6916 52.0812 62.4497 52.0812Z" fill="white"/>
  <path d="M44.6014 38.9839C45.688 38.5577 46.3902 37.5256 46.3902 36.3546C46.3902 35.4185 45.9283 34.5455 45.1551 34.0187C44.3796 33.4905 43.3947 33.3809 42.5206 33.7251C38.4082 35.3445 35.2014 38.6397 33.6956 42.7841C31.5444 43.5489 30 45.6053 30 48.0156C30 50.426 31.5444 52.4821 33.6956 53.2469C34.9744 56.7674 37.4842 59.6892 40.7887 61.4956C41.3578 61.8067 41.9773 61.9618 42.5966 61.9618C43.2611 61.9618 43.925 61.7832 44.5254 61.4272C45.6929 60.7346 46.3902 59.5117 46.3902 58.1558C46.3902 57.7458 46.0579 57.4136 45.648 57.4136C45.238 57.4136 44.9058 57.7458 44.9058 58.1558C44.9058 58.9823 44.4805 59.7277 43.7682 60.1504C43.0637 60.5682 42.2159 60.5841 41.5007 60.193C38.7758 58.7037 36.6492 56.3757 35.42 53.5641C35.4632 53.565 35.5064 53.5655 35.5499 53.5655C36.4672 53.5655 37.3329 53.342 38.0956 52.9466C38.6175 54.0062 39.302 54.9725 40.1372 55.8269C40.2828 55.9756 40.4753 56.0501 40.6681 56.0501C40.8551 56.0501 41.0424 55.98 41.1867 55.8388C41.4798 55.5523 41.4851 55.0824 41.1986 54.7893C40.4187 53.9914 39.7902 53.0814 39.3263 52.0791C40.417 51.0653 41.1001 49.6186 41.1001 48.0156C41.1001 46.4127 40.417 44.9663 39.3266 43.9522C40.3747 41.6923 42.2745 39.8965 44.6014 38.9839ZM39.6157 48.0156C39.6157 50.2576 37.7918 52.0812 35.5502 52.0812C33.3082 52.0812 31.4844 50.2576 31.4844 48.0156C31.4844 45.7737 33.3082 43.9499 35.5502 43.9499C37.7918 43.9499 39.6157 45.7737 39.6157 48.0156ZM38.0962 43.0847C37.3332 42.689 36.4672 42.4655 35.5502 42.4655C35.5067 42.4655 35.4635 42.4661 35.4203 42.4669C36.8878 39.1114 39.6255 36.4604 43.0645 35.1062C43.4872 34.9395 43.9447 34.9905 44.3196 35.2457C44.6921 35.4994 44.9058 35.9035 44.9058 36.3546C44.9058 36.9023 44.5657 37.4035 44.0595 37.6018C41.4616 38.6209 39.3258 40.5949 38.0962 43.0847Z" fill="white"/>
  <defs>
    <filter id="filter0_d" x="0.824219" y="0.823914" width="96.3521" height="96.3521" filterUnits="userSpaceOnUse" color-interpolation-filters="sRGB">
      <feFlood flood-opacity="0" result="BackgroundImageFix"/>
      <feColorMatrix in="SourceAlpha" type="matrix" values="0 0 0 0 0 0 0 0 0 0 0 0 0 0 0 0 0 0 127 0"/>
      <feOffset dy="1"/>
      <feGaussianBlur stdDeviation="5"/>
      <feColorMatrix type="matrix" values="0 0 0 0 0.85098 0 0 0 0 0.2 0 0 0 0 0.403921 0 0 0 0.46 0"/>
      <feBlend mode="normal" in2="BackgroundImageFix" result="effect1_dropShadow"/>
      <feBlend mode="normal" in="SourceGraphic" in2="effect1_dropShadow" result="shape"/>
    </filter>
    <linearGradient id="paint0_linear" x1="30.3478" y1="-439.501" x2="87.7781" y2="-438.113" gradientUnits="userSpaceOnUse">
      <stop stop-color="#FF4E85"/>
      <stop offset="1" stop-color="#D93367"/>
    </linearGradient>
    <linearGradient id="paint1_linear" x1="49" y1="9" x2="69" y2="87" gradientUnits="userSpaceOnUse">
      <stop stop-color="#FF4E86"/>
      <stop offset="1" stop-color="#DA3367"/>
    </linearGradient>
  </defs>
</svg>
