<svg width="98" height="98" viewBox="0 0 98 98" fill="none" xmlns="http://www.w3.org/2000/svg">
  <g filter="url(#filter0_d)">
    <path d="M45.1732 10.5851C47.6234 9.57019 50.3766 9.57019 52.8268 10.5851L72.7503 18.8377C75.2006 19.8526 77.1474 21.7994 78.1623 24.2497L86.4149 44.1732C87.4298 46.6234 87.4298 49.3766 86.4149 51.8268L78.1623 71.7503C77.1474 74.2006 75.2006 76.1474 72.7503 77.1623L52.8268 85.4149C50.3766 86.4298 47.6234 86.4298 45.1732 85.4149L25.2497 77.1623C22.7994 76.1474 20.8526 74.2006 19.8377 71.7503L11.5851 51.8268C10.5702 49.3766 10.5702 46.6234 11.5851 44.1732L19.8377 24.2497C20.8526 21.7994 22.7994 19.8526 25.2497 18.8377L45.1732 10.5851Z" fill="url(#paint0_linear)" fill-opacity="0.03"/>
    <path d="M45.5558 11.509C47.7611 10.5956 50.2389 10.5956 52.4442 11.509L72.3676 19.7616C74.5729 20.675 76.325 22.4271 77.2384 24.6324L85.491 44.5558C86.4044 46.7611 86.4044 49.2389 85.491 51.4442L77.2384 71.3676C76.325 73.5729 74.5729 75.325 72.3676 76.2384L52.4442 84.491C50.2389 85.4044 47.7611 85.4044 45.5558 84.491L25.6324 76.2384C23.4271 75.325 21.675 73.5729 20.7616 71.3676L12.509 51.4442C11.5956 49.2389 11.5956 46.7611 12.509 44.5558L20.7616 24.6324C21.675 22.4271 23.4271 20.675 25.6324 19.7616L45.5558 11.509Z" stroke="url(#paint1_linear)" stroke-width="2"/>
  </g>
  <path d="M42.4349 38.6193C44.5355 38.6193 46.2446 36.9103 46.2446 34.8097C46.2446 32.7092 44.5355 31 42.4349 31C40.3344 31 38.6256 32.7091 38.6256 34.8096C38.6256 36.9102 40.3344 38.6193 42.4349 38.6193ZM42.4349 32.8272C43.5281 32.8272 44.4174 33.7166 44.4174 34.8096C44.4174 35.9027 43.528 36.792 42.4349 36.792C41.342 36.792 40.4528 35.9026 40.4528 34.8096C40.4528 33.7166 41.342 32.8272 42.4349 32.8272ZM54.1725 38.6193C56.2729 38.6193 57.9819 36.9103 57.9819 34.8097C57.9819 32.7092 56.2729 31 54.1725 31C52.072 31 50.363 32.7091 50.363 34.8096C50.363 36.9102 52.0719 38.6193 54.1725 38.6193ZM54.1725 32.8272C55.2655 32.8272 56.1547 33.7166 56.1547 34.8096C56.1547 35.9027 55.2654 36.792 54.1725 36.792C53.0795 36.792 52.1902 35.9026 52.1902 34.8096C52.1901 33.7166 53.0794 32.8272 54.1725 32.8272ZM62.3662 41.2218V42.631C62.3662 43.1357 61.9572 43.5446 61.4526 43.5446C60.948 43.5446 60.539 43.1357 60.539 42.631V42.1357H59.3384C58.8338 42.1357 58.4248 41.7267 58.4248 41.222C58.4248 40.7174 58.8338 40.3084 59.3384 40.3084H61.4336C61.9423 40.2993 62.3662 40.7109 62.3662 41.2218ZM42.7159 42.1357C40.1436 42.1357 39.3631 44.9644 39.1851 45.8313L37.4426 54.3189C37.3538 54.7513 36.9733 55.049 36.5486 55.049C36.4875 55.049 36.4258 55.0428 36.3639 55.0301C35.8696 54.9286 35.5512 54.4456 35.6526 53.9514L37.3952 45.4638C38.048 42.2838 40.0868 40.3083 42.7159 40.3083H48.4667C48.9713 40.3083 49.3803 40.7173 49.3803 41.2219C49.3803 41.7266 48.9713 42.1356 48.4667 42.1356H42.7159V42.1357ZM55.3439 64.0724C55.344 64.0771 55.344 64.0816 55.344 64.0862C55.344 64.233 55.3093 64.3717 55.2479 64.4947C55.0978 64.7942 54.7881 65 54.4303 65C54.4238 65 54.4173 64.9999 54.4109 64.9998H51.9619C51.4573 64.9998 51.0483 64.5908 51.0483 64.0862C51.0483 63.5816 51.4573 63.1726 51.9619 63.1726H53.5167V46.1562C53.5167 45.6516 53.9257 45.2426 54.4303 45.2426C54.9349 45.2426 55.3439 45.6516 55.3439 46.1562V64.0724ZM60.9547 53.9516C61.0561 54.4458 60.7376 54.9288 60.2434 55.0303C60.1814 55.043 60.1196 55.0492 60.0587 55.0492C59.634 55.0492 59.2535 54.7514 59.1647 54.3191L57.4222 45.8315C57.2442 44.9646 56.4637 42.1359 53.8914 42.1359C52.1943 42.1359 51.2944 43.5485 50.3135 45.9886L47.432 53.1565C47.2438 53.6246 46.7115 53.852 46.2436 53.6635C45.7754 53.4753 45.5484 52.9431 45.7366 52.4751L48.6181 45.3071C49.3696 43.4375 50.6276 40.3086 53.8914 40.3086C56.5204 40.3086 58.5593 42.2841 59.2121 45.4641L60.9547 53.9516ZM45.5591 64.0862C45.5591 64.5908 45.1501 64.9998 44.6455 64.9998H42.1965C42.1901 64.9999 42.1836 65 42.1771 65C41.6725 65 41.2635 64.591 41.2635 64.0864V46.1562C41.2635 45.6516 41.6725 45.2426 42.1771 45.2426C42.6817 45.2426 43.0907 45.6516 43.0907 46.1562V63.1726H44.6455C45.1501 63.1726 45.5591 63.5816 45.5591 64.0862Z" fill="white"/>
  <defs>
    <filter id="filter0_d" x="0.824219" y="0.823975" width="96.3521" height="96.3521" filterUnits="userSpaceOnUse" color-interpolation-filters="sRGB">
      <feFlood flood-opacity="0" result="BackgroundImageFix"/>
      <feColorMatrix in="SourceAlpha" type="matrix" values="0 0 0 0 0 0 0 0 0 0 0 0 0 0 0 0 0 0 127 0"/>
      <feOffset dy="1"/>
      <feGaussianBlur stdDeviation="5"/>
      <feColorMatrix type="matrix" values="0 0 0 0 0.85098 0 0 0 0 0.2 0 0 0 0 0.403921 0 0 0 0.46 0"/>
      <feBlend mode="normal" in2="BackgroundImageFix" result="effect1_dropShadow"/>
      <feBlend mode="normal" in="SourceGraphic" in2="effect1_dropShadow" result="shape"/>
    </filter>
    <linearGradient id="paint0_linear" x1="30.3478" y1="-439.501" x2="87.7781" y2="-438.113" gradientUnits="userSpaceOnUse">
      <stop stop-color="#FF4E85"/>
      <stop offset="1" stop-color="#D93367"/>
    </linearGradient>
    <linearGradient id="paint1_linear" x1="49" y1="9" x2="69" y2="87" gradientUnits="userSpaceOnUse">
      <stop stop-color="#FF4E86"/>
      <stop offset="1" stop-color="#DA3367"/>
    </linearGradient>
  </defs>
</svg>
