<svg width="98" height="98" viewBox="0 0 98 98" fill="none" xmlns="http://www.w3.org/2000/svg">
  <g filter="url(#filter0_d)">
    <path d="M45.1732 10.5851C47.6234 9.57019 50.3766 9.57019 52.8268 10.5851L72.7503 18.8377C75.2006 19.8526 77.1474 21.7994 78.1623 24.2497L86.4149 44.1732C87.4298 46.6234 87.4298 49.3766 86.4149 51.8268L78.1623 71.7503C77.1474 74.2006 75.2006 76.1474 72.7503 77.1623L52.8268 85.4149C50.3766 86.4298 47.6234 86.4298 45.1732 85.4149L25.2497 77.1623C22.7994 76.1474 20.8526 74.2006 19.8377 71.7503L11.5851 51.8268C10.5702 49.3766 10.5702 46.6234 11.5851 44.1732L19.8377 24.2497C20.8526 21.7994 22.7994 19.8526 25.2497 18.8377L45.1732 10.5851Z" fill="url(#paint0_linear)" fill-opacity="0.03"/>
    <path d="M45.5558 11.509C47.7611 10.5956 50.2389 10.5956 52.4442 11.509L72.3676 19.7616C74.5729 20.675 76.325 22.4271 77.2384 24.6324L85.491 44.5558C86.4044 46.7611 86.4044 49.2389 85.491 51.4442L77.2384 71.3676C76.325 73.5729 74.5729 75.325 72.3676 76.2384L52.4442 84.491C50.2389 85.4044 47.7611 85.4044 45.5558 84.491L25.6324 76.2384C23.4271 75.325 21.675 73.5729 20.7616 71.3676L12.509 51.4442C11.5956 49.2389 11.5956 46.7611 12.509 44.5558L20.7616 24.6324C21.675 22.4271 23.4271 20.675 25.6324 19.7616L45.5558 11.509Z" stroke="url(#paint1_linear)" stroke-width="2"/>
  </g>
  <path d="M48.5 36.1H51.5C51.8314 36.1 52.1 35.8314 52.1 35.5C52.1 35.1686 51.8314 34.9 51.5 34.9H48.5C48.1686 34.9 47.9 35.1686 47.9 35.5C47.9 35.8314 48.1686 36.1 48.5 36.1Z" fill="white" stroke="white" stroke-width="0.2"/>
  <path d="M53.5 36.1H54.5C54.8314 36.1 55.1 35.8314 55.1 35.5C55.1 35.1686 54.8314 34.9 54.5 34.9H53.5C53.1686 34.9 52.9 35.1686 52.9 35.5C52.9 35.8314 53.1686 36.1 53.5 36.1Z" fill="white" stroke="white" stroke-width="0.2"/>
  <path d="M59.1 48.9916V45.1H60.4845C60.9035 45.1001 61.2862 44.8621 61.4714 44.4862C61.6567 44.1103 61.6122 43.6618 61.3568 43.3295L61.3568 43.3295L57.3718 38.1495L57.3708 38.1482C57.2953 38.0534 57.2036 37.9729 57.1 37.9105V35.5V35.4999C57.0983 34.0647 55.9353 32.9017 54.5001 32.9H54.5H41H41C40.8409 32.9 40.6883 32.9633 40.5758 33.0758L34.0758 39.5758C33.9633 39.6883 33.9 39.8409 33.9 40V40L33.9 58.5L33.9 58.5001C33.9017 59.9353 35.0647 61.0983 36.4999 61.1H36.5H43.8461C44.5232 62.343 45.8317 63.1136 47.2504 63.1H60.2492C62.3365 63.1347 64.0587 61.4743 64.1 59.387L64.1 59.3842C64.0885 58.018 63.3256 56.7721 62.1203 56.1394C62.355 55.5165 62.4752 54.8561 62.475 54.19L62.475 54.1894C62.4612 51.9446 61.1414 49.9157 59.1 48.9916ZM43.4 59.3852C43.4004 59.5576 43.4132 59.7296 43.4383 59.9H36.5C35.7268 59.9 35.1 59.2732 35.1 58.5V40.6H39H39.0001C40.4353 40.5983 41.5983 39.4353 41.6 38.0001V38V34.1H54.5C55.2732 34.1 55.9 34.7268 55.9 35.5V37.9105C55.7964 37.9729 55.7047 38.0534 55.6292 38.1482L55.6282 38.1495L51.6438 43.329C51.3881 43.6611 51.3434 44.1097 51.5285 44.4858C51.7136 44.8619 52.0963 45.1 52.5155 45.1H53.9V48.953C52.9211 49.3948 52.0792 50.0916 51.4621 50.9702C50.8293 50.6454 50.128 50.4754 49.4158 50.475C47.036 50.4352 45.0723 52.3282 45.025 54.708L45.025 54.708L45.025 54.7101C45.0257 55.2146 45.1188 55.7145 45.2994 56.185C44.1415 56.8334 43.4152 58.0524 43.4 59.3839L43.4 59.3852ZM60.2523 61.9V61.9H60.25L47.25 61.9L47.2492 61.9C46.1703 61.9086 45.1924 61.2669 44.7709 60.2737C44.657 59.9916 44.5989 59.69 44.6 59.3857C44.6103 58.321 45.2937 57.3797 46.3029 57.0403L46.3029 57.0403L46.3052 57.0395C46.4716 56.979 46.6028 56.8481 46.6636 56.6818C46.7245 56.5156 46.7088 56.3309 46.6208 56.1773L46.6205 56.1768C46.3619 55.7316 46.2255 55.2261 46.225 54.7113C46.2701 52.9941 47.6953 51.6365 49.4128 51.675V51.675H49.415C50.0955 51.6751 50.7595 51.8855 51.3159 52.2773L51.3168 52.2779C51.4566 52.3741 51.6303 52.4073 51.7958 52.3695L51.7963 52.3694C51.9621 52.3306 52.1035 52.2232 52.1855 52.074C52.5909 51.3426 53.183 50.733 53.9 50.3067V55.5C53.9 56.1075 54.3925 56.6 55 56.6H58C58.6075 56.6 59.1 56.1075 59.1 55.5V50.3509C60.4386 51.1641 61.2654 52.6158 61.275 54.1902C61.2736 54.882 61.109 55.5638 60.7944 56.18L60.7943 56.1803C60.7155 56.3359 60.7083 56.518 60.7746 56.6793C60.8408 56.8405 60.9739 56.965 61.1393 57.0203L61.1407 57.0208C62.1739 57.3491 62.882 58.3006 62.9 59.3844C62.8603 60.8086 61.677 61.9331 60.2523 61.9ZM56.5 38.984L60.2814 43.9H59C58.3925 43.9 57.9 44.3925 57.9 45V55.4H55.1V45C55.1 44.3925 54.6075 43.9 54 43.9H52.7186L56.5 38.984ZM35.9484 39.4L40.4 34.9484V38C40.4 38.7732 39.7732 39.4 39 39.4H35.9484Z" fill="white" stroke="white" stroke-width="0.2"/>
  <path d="M40.7502 44.9963C40.5513 44.9963 40.3606 45.0754 40.22 45.216C40.0793 45.3566 40.0003 45.5474 40.0003 45.7463V50.2459C39.9996 50.3741 40.0318 50.5003 40.0937 50.6125C40.1557 50.7247 40.2453 50.8192 40.3541 50.8869C40.463 50.9546 40.5873 50.9932 40.7154 50.9992C40.8434 51.0051 40.9708 50.9782 41.0854 50.9209L48.5846 47.1712C48.7094 47.109 48.8144 47.0132 48.8877 46.8947C48.9611 46.7761 49 46.6394 49 46.5C49 46.3605 48.9611 46.2239 48.8877 46.1053C48.8144 45.9867 48.7094 45.891 48.5846 45.8288L41.0854 42.0791C40.9074 41.9902 40.7014 41.9756 40.5127 42.0386C40.3239 42.1016 40.168 42.237 40.0791 42.415C39.9902 42.593 39.9756 42.7991 40.0386 42.9878C40.1016 43.1766 40.237 43.3325 40.415 43.4215L46.5726 46.4962L41.5001 49.0325V45.7463C41.5001 45.5474 41.4211 45.3566 41.2805 45.216C41.1399 45.0754 40.9491 44.9963 40.7502 44.9963Z" fill="white"/>
  <defs>
    <filter id="filter0_d" x="0.824219" y="0.823914" width="96.3521" height="96.3521" filterUnits="userSpaceOnUse" color-interpolation-filters="sRGB">
      <feFlood flood-opacity="0" result="BackgroundImageFix"/>
      <feColorMatrix in="SourceAlpha" type="matrix" values="0 0 0 0 0 0 0 0 0 0 0 0 0 0 0 0 0 0 127 0"/>
      <feOffset dy="1"/>
      <feGaussianBlur stdDeviation="5"/>
      <feColorMatrix type="matrix" values="0 0 0 0 0.85098 0 0 0 0 0.2 0 0 0 0 0.403921 0 0 0 0.46 0"/>
      <feBlend mode="normal" in2="BackgroundImageFix" result="effect1_dropShadow"/>
      <feBlend mode="normal" in="SourceGraphic" in2="effect1_dropShadow" result="shape"/>
    </filter>
    <linearGradient id="paint0_linear" x1="30.3478" y1="-439.501" x2="87.7781" y2="-438.113" gradientUnits="userSpaceOnUse">
      <stop stop-color="#FF4E85"/>
      <stop offset="1" stop-color="#D93367"/>
    </linearGradient>
    <linearGradient id="paint1_linear" x1="49" y1="9" x2="69" y2="87" gradientUnits="userSpaceOnUse">
      <stop stop-color="#FF4E86"/>
      <stop offset="1" stop-color="#DA3367"/>
    </linearGradient>
  </defs>
</svg>
