<svg width="98" height="98" viewBox="0 0 98 98" fill="none" xmlns="http://www.w3.org/2000/svg">
  <g filter="url(#filter0_d)">
    <path d="M45.1732 10.5851C47.6234 9.57019 50.3766 9.57019 52.8268 10.5851L72.7503 18.8377C75.2006 19.8526 77.1474 21.7994 78.1623 24.2497L86.4149 44.1732C87.4298 46.6234 87.4298 49.3766 86.4149 51.8268L78.1623 71.7503C77.1474 74.2006 75.2006 76.1474 72.7503 77.1623L52.8268 85.4149C50.3766 86.4298 47.6234 86.4298 45.1732 85.4149L25.2497 77.1623C22.7994 76.1474 20.8526 74.2006 19.8377 71.7503L11.5851 51.8268C10.5702 49.3766 10.5702 46.6234 11.5851 44.1732L19.8377 24.2497C20.8526 21.7994 22.7994 19.8526 25.2497 18.8377L45.1732 10.5851Z" fill="url(#paint0_linear)" fill-opacity="0.03"/>
    <path d="M45.5558 11.509C47.7611 10.5956 50.2389 10.5956 52.4442 11.509L72.3676 19.7616C74.5729 20.675 76.325 22.4271 77.2384 24.6324L85.491 44.5558C86.4044 46.7611 86.4044 49.2389 85.491 51.4442L77.2384 71.3676C76.325 73.5729 74.5729 75.325 72.3676 76.2384L52.4442 84.491C50.2389 85.4044 47.7611 85.4044 45.5558 84.491L25.6324 76.2384C23.4271 75.325 21.675 73.5729 20.7616 71.3676L12.509 51.4442C11.5956 49.2389 11.5956 46.7611 12.509 44.5558L20.7616 24.6324C21.675 22.4271 23.4271 20.675 25.6324 19.7616L45.5558 11.509Z" stroke="url(#paint1_linear)" stroke-width="2"/>
  </g>
  <path d="M44.9169 46.6622C44.6739 46.6622 44.4407 46.7588 44.2688 46.9307C44.0969 47.1026 44.0004 47.3357 44.0004 47.5788V53.0784C43.9995 53.235 44.0388 53.3893 44.1145 53.5264C44.1902 53.6636 44.2998 53.779 44.4328 53.8617C44.5659 53.9445 44.7179 53.9917 44.8743 53.999C45.0308 54.0063 45.1865 53.9733 45.3267 53.9033L54.4923 49.3203C54.6448 49.2443 54.7731 49.1273 54.8628 48.9824C54.9525 48.8374 55 48.6704 55 48.5C55 48.3296 54.9525 48.1625 54.8628 48.0176C54.7731 47.8727 54.6448 47.7556 54.4923 47.6796L45.3267 43.0966C45.1091 42.988 44.8573 42.9702 44.6266 43.0472C44.3959 43.1242 44.2053 43.2897 44.0966 43.5073C43.988 43.7248 43.9702 43.9767 44.0472 44.2073C44.1242 44.438 44.2897 44.6287 44.5072 44.7373L52.0331 48.4954L45.8335 51.5953V47.5788C45.8335 47.3357 45.7369 47.1026 45.5651 46.9307C45.3932 46.7588 45.16 46.6622 44.9169 46.6622Z" fill="white"/>
  <path d="M63.7712 35.9H63.7711H59.0044C58.819 35.9 58.6417 35.9758 58.5114 36.1097L58.5831 36.1794L58.5114 36.1097C58.3813 36.2435 58.3086 36.4244 58.3086 36.6125C58.3086 36.8006 58.3813 36.9815 58.5114 37.1153L58.5822 37.0464L58.5114 37.1153C58.6417 37.2492 58.819 37.325 59.0044 37.325H63.7711C64.2177 37.325 64.6467 37.5074 64.9634 37.8329C65.2801 38.1586 65.4586 38.6008 65.4586 39.0625V57.4375C65.4586 57.8992 65.2801 58.3414 64.9634 58.6671C64.6467 58.9926 64.2177 59.175 63.7711 59.175H39.3419C39.1565 59.175 38.9792 59.2508 38.8489 59.3847C38.7188 59.5185 38.6461 59.6994 38.6461 59.8875C38.6461 60.0756 38.7188 60.2565 38.8489 60.3903C38.9792 60.5242 39.1565 60.6 39.3419 60.6H63.7711H63.7712C64.5884 60.599 65.3713 60.2648 65.9483 59.6717C66.5252 59.0786 66.8493 58.2752 66.8503 57.4376V57.4375V39.0625V39.0624C66.8493 38.2249 66.5252 37.4214 65.9483 36.8283L65.8766 36.8981L65.9483 36.8283C65.3713 36.2352 64.5884 35.901 63.7712 35.9Z" fill="white" stroke="white" stroke-width="0.2"/>
  <path d="M33.9792 35.9L33.979 35.9C33.1618 35.901 32.3789 36.2352 31.8019 36.8283C31.225 37.4214 30.901 38.2249 30.9 39.0624V39.0625L30.9 57.4375L30.9 57.4376C30.901 58.2752 31.225 59.0786 31.8019 59.6717C32.3789 60.2648 33.1618 60.599 33.979 60.6H33.9792H36.9583C37.1438 60.6 37.3211 60.5242 37.4513 60.3903C37.5815 60.2565 37.6542 60.0756 37.6542 59.8875C37.6542 59.6994 37.5815 59.5185 37.4513 59.3847C37.3211 59.2508 37.1438 59.175 36.9583 59.175H33.9792C33.5325 59.175 33.1036 58.9926 32.7869 58.6671C32.4701 58.3414 32.2917 57.8992 32.2917 57.4375V39.0625C32.2917 38.6008 32.4701 38.1586 32.7869 37.8329C33.1036 37.5074 33.5325 37.325 33.9792 37.325H56.6208C56.8063 37.325 56.9836 37.2492 57.1138 37.1153C57.244 36.9815 57.3167 36.8006 57.3167 36.6125C57.3167 36.4244 57.244 36.2435 57.1138 36.1097C56.9836 35.9758 56.8063 35.9 56.6208 35.9L33.9792 35.9Z" fill="white" stroke="white" stroke-width="0.2"/>
  <path d="M33.9786 56.9251C34.3655 56.9251 34.6745 56.6035 34.6745 56.2126C34.6745 55.8217 34.3655 55.5001 33.9786 55.5001C33.5918 55.5001 33.2828 55.8217 33.2828 56.2126C33.2828 56.6035 33.5918 56.9251 33.9786 56.9251Z" fill="white" stroke="white" stroke-width="0.2"/>
  <path d="M33.9786 54.4749C34.3655 54.4749 34.6745 54.1533 34.6745 53.7624C34.6745 53.3715 34.3655 53.0499 33.9786 53.0499C33.5918 53.0499 33.2828 53.3715 33.2828 53.7624C33.2828 54.1533 33.5918 54.4749 33.9786 54.4749Z" fill="white" stroke="white" stroke-width="0.2"/>
  <path d="M63.8708 51.3125V45.1875C63.8708 44.9994 63.7981 44.8184 63.6679 44.6846C63.5377 44.5507 63.3604 44.475 63.1749 44.475C62.9895 44.475 62.8122 44.5507 62.6819 44.6846C62.5518 44.8184 62.4791 44.9994 62.4791 45.1875V51.3125C62.4791 51.5005 62.5518 51.6815 62.6819 51.8153C62.8122 51.9492 62.9895 52.025 63.1749 52.025C63.3604 52.025 63.5377 51.9492 63.6679 51.8153C63.7981 51.6815 63.8708 51.5005 63.8708 51.3125Z" fill="white" stroke="white" stroke-width="0.2"/>
  <defs>
    <filter id="filter0_d" x="0.824219" y="0.823975" width="96.3521" height="96.3521" filterUnits="userSpaceOnUse" color-interpolation-filters="sRGB">
      <feFlood flood-opacity="0" result="BackgroundImageFix"/>
      <feColorMatrix in="SourceAlpha" type="matrix" values="0 0 0 0 0 0 0 0 0 0 0 0 0 0 0 0 0 0 127 0"/>
      <feOffset dy="1"/>
      <feGaussianBlur stdDeviation="5"/>
      <feColorMatrix type="matrix" values="0 0 0 0 0.85098 0 0 0 0 0.2 0 0 0 0 0.403921 0 0 0 0.46 0"/>
      <feBlend mode="normal" in2="BackgroundImageFix" result="effect1_dropShadow"/>
      <feBlend mode="normal" in="SourceGraphic" in2="effect1_dropShadow" result="shape"/>
    </filter>
    <linearGradient id="paint0_linear" x1="30.3478" y1="-439.501" x2="87.7781" y2="-438.113" gradientUnits="userSpaceOnUse">
      <stop stop-color="#FF4E85"/>
      <stop offset="1" stop-color="#D93367"/>
    </linearGradient>
    <linearGradient id="paint1_linear" x1="49" y1="9" x2="69" y2="87" gradientUnits="userSpaceOnUse">
      <stop stop-color="#FF4E86"/>
      <stop offset="1" stop-color="#DA3367"/>
    </linearGradient>
  </defs>
</svg>
