<svg width="98" height="98" viewBox="0 0 98 98" fill="none" xmlns="http://www.w3.org/2000/svg">
  <g filter="url(#filter0_d)">
    <path d="M45.1732 10.5851C47.6234 9.57019 50.3766 9.57019 52.8268 10.5851L72.7503 18.8377C75.2006 19.8526 77.1474 21.7994 78.1623 24.2497L86.4149 44.1732C87.4298 46.6234 87.4298 49.3766 86.4149 51.8268L78.1623 71.7503C77.1474 74.2006 75.2006 76.1474 72.7503 77.1623L52.8268 85.4149C50.3766 86.4298 47.6234 86.4298 45.1732 85.4149L25.2497 77.1623C22.7994 76.1474 20.8526 74.2006 19.8377 71.7503L11.5851 51.8268C10.5702 49.3766 10.5702 46.6234 11.5851 44.1732L19.8377 24.2497C20.8526 21.7994 22.7994 19.8526 25.2497 18.8377L45.1732 10.5851Z" fill="url(#paint0_linear)" fill-opacity="0.03"/>
    <path d="M45.5558 11.509C47.7611 10.5956 50.2389 10.5956 52.4442 11.509L72.3676 19.7616C74.5729 20.675 76.325 22.4271 77.2384 24.6324L85.491 44.5558C86.4044 46.7611 86.4044 49.2389 85.491 51.4442L77.2384 71.3676C76.325 73.5729 74.5729 75.325 72.3676 76.2384L52.4442 84.491C50.2389 85.4044 47.7611 85.4044 45.5558 84.491L25.6324 76.2384C23.4271 75.325 21.675 73.5729 20.7616 71.3676L12.509 51.4442C11.5956 49.2389 11.5956 46.7611 12.509 44.5558L20.7616 24.6324C21.675 22.4271 23.4271 20.675 25.6324 19.7616L45.5558 11.509Z" stroke="url(#paint1_linear)" stroke-width="2"/>
  </g>
  <path d="M50.711 36.6389L50.7111 36.639C50.8299 36.8634 50.8873 37.1253 50.8873 37.4133C50.8873 37.876 50.7363 38.2692 50.4306 38.5686C50.2115 38.7835 49.9339 38.9287 49.61 39.0044V39.1059C49.61 39.4114 49.3618 39.6596 49.0562 39.6596C48.7507 39.6596 48.5025 39.4114 48.5025 39.1059V39.0136C48.1311 38.9356 47.8176 38.7728 47.5771 38.5245L47.5771 38.5245C47.3129 38.2518 47.1598 37.8983 47.1159 37.4826C47.1159 37.4826 47.1159 37.4825 47.1159 37.4825L47.2651 37.4668C47.2522 37.3455 47.2921 37.2235 47.3743 37.1322L50.711 36.6389ZM50.711 36.6389C50.593 36.4166 50.4172 36.2266 50.1926 36.0725L50.1925 36.0724M50.711 36.6389L50.1925 36.0724M50.1925 36.0724C49.9794 35.9266 49.6678 35.7879 49.2504 35.6459L49.2504 35.6459M50.1925 36.0724L49.2504 35.6459M49.2504 35.6459C48.8174 35.4987 48.6343 35.3721 48.562 35.3051L48.562 35.3051M49.2504 35.6459L48.562 35.3051M48.562 35.3051C48.487 35.2356 48.4427 35.1375 48.4427 34.9638C48.4427 34.7846 48.4916 34.672 48.5851 34.5839C48.6783 34.4967 48.8293 34.4402 49.058 34.4402C49.2713 34.4402 49.4055 34.5004 49.5082 34.617L49.5083 34.6171M48.562 35.3051L49.5083 34.6171M49.5083 34.6171C49.5973 34.718 49.6572 34.8606 49.6765 35.0516M49.5083 34.6171L50.6898 35.3871M50.6898 35.3871L50.6896 35.3872C50.5787 35.5084 50.4212 35.5777 50.2577 35.5777C49.9604 35.5777 49.7062 35.3476 49.6765 35.0516M50.6898 35.3871C50.7995 35.2669 50.8543 35.1051 50.84 34.9428L50.84 34.9428M50.6898 35.3871L50.84 34.9428M49.6765 35.0516L49.8258 35.0366L49.6766 35.0517C49.6766 35.0516 49.6766 35.0516 49.6765 35.0516ZM50.84 34.9428C50.8033 34.5296 50.6714 34.1753 50.4401 33.8982L50.84 34.9428ZM47.6986 36.8377C47.5324 36.8377 47.3738 36.9083 47.2628 37.0319L50.44 33.8982C50.2295 33.646 49.9532 33.4742 49.6234 33.3856V33.2063C49.6234 32.8999 49.3743 32.6508 49.0681 32.6508C48.7616 32.6508 48.5128 32.9 48.5128 33.2063V33.3808C48.2001 33.4586 47.9319 33.6058 47.7192 33.8215C47.4223 34.1227 47.2755 34.5137 47.2755 34.972C47.2755 35.4082 47.4094 35.7831 47.6818 36.0748C47.9395 36.351 48.3421 36.564 48.8902 36.7361C49.3408 36.8923 49.5235 37.0238 49.5932 37.092L49.5932 37.092C49.6737 37.1708 49.7167 37.2722 49.7167 37.4199C49.7167 37.5781 49.6638 37.6918 49.5548 37.7844C49.4349 37.8861 49.2649 37.9454 49.0349 37.9454C48.7633 37.9454 48.5776 37.8754 48.459 37.7603C48.3589 37.6629 48.3004 37.5409 48.2803 37.3592L48.2803 37.3592C48.2479 37.0659 47.994 36.8377 47.6986 36.8377ZM50.579 35.2859C50.6605 35.1967 50.7012 35.0765 50.6905 34.956L50.579 35.2859Z" fill="white" stroke="white" stroke-width="0.3"/>
  <path d="M64.8228 35.4688H56.3114C55.9913 35.4688 55.7319 35.7282 55.7319 36.0484C55.7319 36.3685 55.9913 36.6279 56.3114 36.6279H64.8228C65.4667 36.6279 65.9909 37.152 65.9909 37.7961V56.0196C65.9909 56.6635 65.4669 57.1878 64.8228 57.1878H33.1772C32.5333 57.1878 32.0091 56.6637 32.0091 56.0196V37.7959C32.0091 37.1519 32.5331 36.6277 33.1772 36.6277H41.6886C42.0087 36.6277 42.2681 36.3683 42.2681 36.0482C42.2681 35.7281 42.0087 35.4687 41.6886 35.4687H33.1772C31.8939 35.4687 30.85 36.5126 30.85 37.7959V56.0194C30.85 57.3027 31.8939 58.3467 33.1772 58.3467H64.8228C66.1061 58.3467 67.15 57.3027 67.15 56.0194V37.7959C67.15 36.5126 66.1061 35.4688 64.8228 35.4688Z" fill="white" stroke="white" stroke-width="0.3"/>
  <path d="M56.1003 62.08H52.0253V59.4854C52.0253 59.1653 51.7659 58.9059 51.4458 58.9059C51.1257 58.9059 50.8663 59.1653 50.8663 59.4854V62.08H47.1331V59.4854C47.1331 59.1653 46.8737 58.9059 46.5535 58.9059C46.2334 58.9059 45.974 59.1653 45.974 59.4854V62.08H41.8991C41.0448 62.08 40.35 62.7746 40.35 63.6289C40.35 64.4832 41.0448 65.1778 41.8991 65.1778H56.1003C56.9544 65.1778 57.6492 64.4832 57.6492 63.6289C57.6492 62.7746 56.9544 62.08 56.1003 62.08ZM56.1003 64.0188H41.8991C41.6841 64.0188 41.5091 63.8436 41.5091 63.6289C41.5091 63.4142 41.6841 63.2391 41.8991 63.2391H56.1003C56.315 63.2391 56.4901 63.4142 56.4901 63.6289C56.4901 63.8437 56.3151 64.0188 56.1003 64.0188Z" fill="white" stroke="white" stroke-width="0.3"/>
  <path d="M56.5497 51.3358C56.2296 51.3358 55.9702 51.5952 55.9702 51.9154C55.9702 52.2355 56.2296 52.4949 56.5497 52.4949H57.9643C58.2844 52.4949 58.5438 52.2355 58.5438 51.9154V45.7096C58.5438 45.3894 58.2844 45.13 57.9643 45.13H40.037C39.7168 45.13 39.4574 45.3894 39.4574 45.7096V51.9154C39.4574 52.2355 39.7168 52.4949 40.037 52.4949H48.0933C48.4135 52.4949 48.6729 52.2355 48.6729 51.9154C48.6729 51.5952 48.4135 51.3358 48.0933 51.3358H40.6165V46.2891H57.3849V51.3358H56.5497Z" fill="white" stroke="white" stroke-width="0.3"/>
  <path d="M47.6783 40.859L47.678 40.8589C47.5507 40.8244 47.4156 40.8341 47.2946 40.8868L47.2946 40.8868L45.8341 41.522L46.1012 40.5763L45.9569 40.5355L46.1012 40.5763C46.165 40.3505 46.0864 40.1085 45.9021 39.9634L45.8093 40.0812L45.9021 39.9634C44.684 39.0043 43.9858 37.5685 43.9858 36.0226V36.0226C43.9856 33.2583 46.2349 31.0091 48.9994 31.0091C51.7637 31.0091 54.0131 33.2583 54.0131 36.0226C54.0131 38.7871 51.7638 41.0363 48.9994 41.0363C48.5542 41.0363 48.1097 40.9768 47.6783 40.859ZM44.8839 40.6216L44.3865 42.3836C44.3865 42.3836 44.3865 42.3836 44.3865 42.3836C44.3865 42.3836 44.3864 42.3837 44.3864 42.3837C44.3255 42.5991 44.3944 42.8304 44.5629 42.9776C44.6706 43.0718 44.8067 43.1206 44.9442 43.1206C45.0223 43.1206 45.101 43.1048 45.1754 43.0724L47.5752 42.0288C48.0422 42.1394 48.5204 42.1954 48.9995 42.1954C52.4034 42.1954 55.1723 39.4265 55.1723 36.0226C55.1723 32.6188 52.4032 29.85 48.9994 29.85C45.5955 29.85 42.8266 32.6189 42.8266 36.0226C42.8266 37.7942 43.5719 39.4496 44.8839 40.6216Z" fill="white" stroke="white" stroke-width="0.3"/>
  <path d="M52.2558 53.6097L54.7592 56.1129C54.9351 56.2888 55.1695 56.3859 55.4182 56.3859C55.6668 56.3859 55.9016 56.2886 56.0771 56.1128L57.1359 55.054L57.1359 55.0539C57.4989 54.6906 57.4987 54.0998 57.1359 53.7366L57.092 53.6927H57.0918L54.6325 51.2332L55.8471 50.4184C55.8471 50.4184 55.8471 50.4184 55.8471 50.4184C56.1543 50.2123 56.3105 49.8438 56.2452 49.4797C56.1798 49.1155 55.905 48.8246 55.545 48.7384L55.545 48.7384L49.4172 47.2714L49.4172 47.2714C49.1004 47.1957 48.772 47.2882 48.5414 47.5187L52.2558 53.6097ZM52.2558 53.6097L51.441 54.8244C51.441 54.8245 51.441 54.8245 51.441 54.8245C51.235 55.1316 50.8677 55.2878 50.5024 55.2226L50.5023 55.2225C50.1382 55.157 49.8472 54.8822 49.761 54.5224L49.761 54.5224L48.2941 48.3945C48.294 48.3945 48.294 48.3945 48.294 48.3944C48.218 48.0774 48.3107 47.7493 48.5414 47.5188L52.2558 53.6097ZM49.5078 48.4846L54.7708 49.7445L53.4016 50.6632C53.2577 50.7596 53.1642 50.9156 53.1475 51.0883C53.1308 51.2606 53.1919 51.4317 53.3147 51.5542M49.5078 48.4846L53.3146 51.5541L53.3147 51.5542M49.5078 48.4846L50.7677 53.7477M49.5078 48.4846L50.7677 53.7477M53.3147 51.5542L56.1555 54.3952L55.4183 55.1324L52.5773 52.2914M53.3147 51.5542L50.7677 53.7477M50.7677 53.7477L51.6862 52.3784L51.6862 52.3783C51.7828 52.2345 51.9385 52.1413 52.111 52.1244L52.1126 52.1242L52.1126 52.1242C52.1302 52.1227 52.1487 52.1217 52.1674 52.1217C52.3204 52.1217 52.468 52.1822 52.5773 52.2914M52.5773 52.2914L52.4712 52.3975L52.5773 52.2914L52.5773 52.2914Z" fill="white" stroke="white" stroke-width="0.3"/>
  <defs>
    <filter id="filter0_d" x="0.824219" y="0.823975" width="96.3521" height="96.3521" filterUnits="userSpaceOnUse" color-interpolation-filters="sRGB">
      <feFlood flood-opacity="0" result="BackgroundImageFix"/>
      <feColorMatrix in="SourceAlpha" type="matrix" values="0 0 0 0 0 0 0 0 0 0 0 0 0 0 0 0 0 0 127 0"/>
      <feOffset dy="1"/>
      <feGaussianBlur stdDeviation="5"/>
      <feColorMatrix type="matrix" values="0 0 0 0 0.85098 0 0 0 0 0.2 0 0 0 0 0.403921 0 0 0 0.46 0"/>
      <feBlend mode="normal" in2="BackgroundImageFix" result="effect1_dropShadow"/>
      <feBlend mode="normal" in="SourceGraphic" in2="effect1_dropShadow" result="shape"/>
    </filter>
    <linearGradient id="paint0_linear" x1="30.3478" y1="-439.501" x2="87.7781" y2="-438.113" gradientUnits="userSpaceOnUse">
      <stop stop-color="#FF4E85"/>
      <stop offset="1" stop-color="#D93367"/>
    </linearGradient>
    <linearGradient id="paint1_linear" x1="49" y1="9" x2="69" y2="87" gradientUnits="userSpaceOnUse">
      <stop stop-color="#FF4E86"/>
      <stop offset="1" stop-color="#DA3367"/>
    </linearGradient>
  </defs>
</svg>
