<svg width="98" height="98" viewBox="0 0 98 98" fill="none" xmlns="http://www.w3.org/2000/svg">
  <g filter="url(#filter0_d)">
    <path d="M45.1732 10.5851C47.6234 9.57019 50.3766 9.57019 52.8268 10.5851L72.7503 18.8377C75.2006 19.8526 77.1474 21.7994 78.1623 24.2497L86.4149 44.1732C87.4298 46.6234 87.4298 49.3766 86.4149 51.8268L78.1623 71.7503C77.1474 74.2006 75.2006 76.1474 72.7503 77.1623L52.8268 85.4149C50.3766 86.4298 47.6234 86.4298 45.1732 85.4149L25.2497 77.1623C22.7994 76.1474 20.8526 74.2006 19.8377 71.7503L11.5851 51.8268C10.5702 49.3766 10.5702 46.6234 11.5851 44.1732L19.8377 24.2497C20.8526 21.7994 22.7994 19.8526 25.2497 18.8377L45.1732 10.5851Z" fill="url(#paint0_linear)" fill-opacity="0.03"/>
    <path d="M45.5558 11.509C47.7611 10.5956 50.2389 10.5956 52.4442 11.509L72.3676 19.7616C74.5729 20.675 76.325 22.4271 77.2384 24.6324L85.491 44.5558C86.4044 46.7611 86.4044 49.2389 85.491 51.4442L77.2384 71.3676C76.325 73.5729 74.5729 75.325 72.3676 76.2384L52.4442 84.491C50.2389 85.4044 47.7611 85.4044 45.5558 84.491L25.6324 76.2384C23.4271 75.325 21.675 73.5729 20.7616 71.3676L12.509 51.4442C11.5956 49.2389 11.5956 46.7611 12.509 44.5558L20.7616 24.6324C21.675 22.4271 23.4271 20.675 25.6324 19.7616L45.5558 11.509Z" stroke="url(#paint1_linear)" stroke-width="2"/>
  </g>
  <path d="M54.0361 52.2397C53.3253 52.2397 52.7471 51.7392 52.7471 51.124C52.7471 50.5087 53.3253 50.0082 54.0361 50.0082C54.7469 50.0082 55.3252 50.5087 55.3252 51.124C55.3252 51.4475 55.5876 51.7099 55.9111 51.7099C56.2347 51.7099 56.4971 51.4475 56.4971 51.124C56.4971 50.0503 55.697 49.1474 54.6221 48.9024V48.5977C54.6221 48.2741 54.3597 48.0117 54.0361 48.0117C53.7126 48.0117 53.4502 48.2741 53.4502 48.5977V48.9024C52.3752 49.1474 51.5752 50.0503 51.5752 51.124C51.5752 52.3853 52.6792 53.4115 54.0361 53.4115C54.7469 53.4115 55.3252 53.912 55.3252 54.5273C55.3252 55.1425 54.7469 55.643 54.0361 55.643C53.3253 55.643 52.7471 55.1425 52.7471 54.5273C52.7471 54.2037 52.4847 53.9413 52.1611 53.9413C51.8376 53.9413 51.5752 54.2037 51.5752 54.5273C51.5752 55.601 52.3752 56.5038 53.4502 56.7489V57.002C53.4502 57.3255 53.7126 57.5879 54.0361 57.5879C54.3597 57.5879 54.6221 57.3255 54.6221 57.002V56.7489C55.697 56.5038 56.4971 55.601 56.4971 54.5273C56.4971 53.2659 55.3931 52.2397 54.0361 52.2397Z" fill="white"/>
  <path d="M60.4536 48.7544C59.6882 47.5617 58.6098 46.6073 57.3351 45.9945C57.0434 45.8543 56.6933 45.9771 56.5531 46.2688C56.4129 46.5604 56.5357 46.9105 56.8273 47.0507C59.0487 48.1185 60.4839 50.4001 60.4839 52.8633C60.4839 53.9172 60.2241 54.9625 59.7327 55.8862C59.5807 56.1718 59.689 56.5266 59.9748 56.6786C60.0624 56.7253 60.1566 56.7474 60.2494 56.7474C60.4591 56.7474 60.6619 56.6346 60.7672 56.4366C61.3485 55.3442 61.6558 54.1085 61.6558 52.8633C61.6558 51.4008 61.2401 49.9799 60.4536 48.7544Z" fill="white"/>
  <path d="M54.9574 45.2462L54.918 45.2461C54.5944 45.2461 54.332 45.5084 54.332 45.832C54.332 46.1556 54.5944 46.418 54.918 46.418L54.9519 46.418C54.9528 46.418 54.9537 46.418 54.9547 46.418C55.277 46.418 55.5391 46.1575 55.5406 45.8348C55.5421 45.5112 55.281 45.2477 54.9574 45.2462Z" fill="white"/>
  <path d="M51.2503 58.6758C49.029 57.608 47.5937 55.3264 47.5937 52.8633C47.5937 51.8093 47.8535 50.7641 48.345 49.8404C48.497 49.5547 48.3886 49.1999 48.1029 49.0479C47.8173 48.8959 47.4624 49.0043 47.3104 49.29C46.7291 50.3824 46.4219 51.6181 46.4219 52.8633C46.4219 54.3258 46.8376 55.7466 47.6241 56.9722C48.3895 58.1648 49.4679 59.1192 50.7426 59.732C50.8244 59.7714 50.9109 59.79 50.996 59.79C51.2142 59.79 51.4237 59.6676 51.5246 59.4578C51.6647 59.1661 51.542 58.816 51.2503 58.6758Z" fill="white"/>
  <path d="M53.1596 59.3086L53.1257 59.3085C52.8006 59.3079 52.5386 59.568 52.5371 59.8917C52.5356 60.2153 52.7968 60.4788 53.1204 60.4804L53.1596 60.4805C53.4832 60.4805 53.7455 60.2181 53.7455 59.8945C53.7455 59.571 53.4832 59.3086 53.1596 59.3086Z" fill="white"/>
  <path d="M64.1 52.8633C64.1 48.2626 60.996 44.3743 56.7727 43.1803C56.7278 43.0783 56.6773 42.9798 56.6214 42.8851H57.9648C59.5062 42.8851 60.7601 41.6312 60.7601 40.0898C60.7601 38.5484 59.5062 37.2945 57.9648 37.2945H53.4553C53.7032 36.8774 53.8461 36.3906 53.8461 35.8711C53.8461 34.3297 52.5921 33.0758 51.0507 33.0758H36.6953C35.1539 33.0758 33.9 34.3297 33.9 35.8711C33.9 37.4125 35.1539 38.6664 36.6953 38.6664H41.2048C40.9569 39.0835 40.814 39.5703 40.814 40.0898C40.814 40.6093 40.9568 41.0961 41.2048 41.5133H39.8594C38.318 41.5133 37.0641 42.7672 37.0641 44.3086C37.0641 45.1501 37.4383 45.9054 38.0281 46.4179C37.4383 46.9305 37.0641 47.6858 37.0641 48.5273C37.0641 49.3688 37.4383 50.1241 38.0281 50.6367C37.4383 51.1493 37.0641 51.9045 37.0641 52.7461C37.0641 53.5876 37.4383 54.3428 38.0281 54.8554C37.4383 55.368 37.0641 56.1233 37.0641 56.9648C37.0641 58.5062 38.318 59.7601 39.8594 59.7601H46.7213C48.5569 61.7066 51.1582 62.9242 54.0391 62.9242C59.5868 62.9242 64.1 58.411 64.1 52.8633ZM57.9648 38.6664C58.7496 38.6664 59.3882 39.3051 59.3882 40.0898C59.3882 40.8746 58.7496 41.5133 57.9648 41.5133H54.2148H43.6094C42.8245 41.5133 42.1859 40.8746 42.1859 40.0898C42.1859 39.3051 42.8245 38.6664 43.6094 38.6664H57.9648ZM36.6953 37.2945C35.9105 37.2945 35.2719 36.6559 35.2719 35.8711C35.2719 35.0863 35.9105 34.4477 36.6953 34.4477H51.0507C51.8356 34.4477 52.4742 35.0863 52.4742 35.8711C52.4742 36.6559 51.8356 37.2945 51.0507 37.2945H36.6953ZM39.8594 42.8851H52.7457C50.498 43.1749 48.4803 44.2094 46.949 45.732H39.8594C39.0746 45.732 38.4359 45.0933 38.4359 44.3086C38.4359 43.5238 39.0746 42.8851 39.8594 42.8851ZM39.8594 47.1039H45.7947C45.1918 47.9643 44.7201 48.9229 44.4086 49.9507H39.8594C39.0745 49.9507 38.4359 49.3121 38.4359 48.5273C38.4359 47.7425 39.0745 47.1039 39.8594 47.1039ZM39.8594 51.3226H44.0967C44.0191 51.825 43.9782 52.3394 43.9782 52.8633C43.9782 53.306 44.0076 53.7419 44.0634 54.1695H39.8594C39.0745 54.1695 38.4359 53.5309 38.4359 52.7461C38.4359 51.9612 39.0745 51.3226 39.8594 51.3226ZM39.8594 58.3882C39.0745 58.3882 38.4359 57.7496 38.4359 56.9648C38.4359 56.18 39.0745 55.5414 39.8594 55.5414H44.3407C44.6237 56.5647 45.0644 57.5229 45.6351 58.3882H39.8594ZM54.0391 61.5523C49.248 61.5523 45.35 57.6544 45.35 52.8633C45.35 48.0723 49.248 44.1743 54.0391 44.1743C58.8301 44.1743 62.7281 48.0723 62.7281 52.8633C62.7281 57.6544 58.8301 61.5523 54.0391 61.5523Z" fill="white" stroke="white" stroke-width="0.2"/>
  <defs>
    <filter id="filter0_d" x="0.824219" y="0.823914" width="96.3521" height="96.3521" filterUnits="userSpaceOnUse" color-interpolation-filters="sRGB">
      <feFlood flood-opacity="0" result="BackgroundImageFix"/>
      <feColorMatrix in="SourceAlpha" type="matrix" values="0 0 0 0 0 0 0 0 0 0 0 0 0 0 0 0 0 0 127 0"/>
      <feOffset dy="1"/>
      <feGaussianBlur stdDeviation="5"/>
      <feColorMatrix type="matrix" values="0 0 0 0 0.85098 0 0 0 0 0.2 0 0 0 0 0.403921 0 0 0 0.46 0"/>
      <feBlend mode="normal" in2="BackgroundImageFix" result="effect1_dropShadow"/>
      <feBlend mode="normal" in="SourceGraphic" in2="effect1_dropShadow" result="shape"/>
    </filter>
    <linearGradient id="paint0_linear" x1="30.3478" y1="-439.501" x2="87.7781" y2="-438.113" gradientUnits="userSpaceOnUse">
      <stop stop-color="#FF4E85"/>
      <stop offset="1" stop-color="#D93367"/>
    </linearGradient>
    <linearGradient id="paint1_linear" x1="49" y1="9" x2="69" y2="87" gradientUnits="userSpaceOnUse">
      <stop stop-color="#FF4E86"/>
      <stop offset="1" stop-color="#DA3367"/>
    </linearGradient>
  </defs>
</svg>
