<svg id="svg" xmlns="http://www.w3.org/2000/svg" xmlns:xlink="http://www.w3.org/1999/xlink" width="400" height="376.0869565217392" viewBox="0, 0, 400,376.0869565217392"><g id="svgg"><path id="path0" d="M157.042 15.606 C 137.617 24.652,133.262 48.730,148.188 64.556 C 151.780 68.365,151.813 68.478,149.313 68.478 C 146.832 68.478,146.739 68.777,146.739 76.706 C 146.739 84.617,146.833 84.920,149.185 84.586 C 150.930 84.339,151.669 83.461,151.765 81.522 C 151.839 80.027,151.961 77.704,152.037 76.359 L 152.174 73.913 196.196 73.913 C 224.819 73.913,240.217 74.293,240.217 75.000 C 240.217 75.706,225.181 76.087,197.283 76.087 L 154.348 76.087 154.348 80.435 L 154.348 84.783 171.196 84.783 C 181.703 84.783,188.043 85.192,188.043 85.870 C 188.043 86.566,177.899 86.957,159.783 86.957 C 132.246 86.957,131.522 87.012,131.522 89.130 C 131.522 92.527,109.866 92.373,102.770 88.925 C 96.731 85.991,96.196 86.495,96.196 95.109 C 96.196 103.722,96.731 104.226,102.770 101.292 C 109.792 97.881,131.522 97.688,131.522 101.037 C 131.522 102.903,132.413 103.201,138.859 103.483 L 146.196 103.804 146.416 115.217 C 146.538 121.495,146.660 128.220,146.688 130.163 L 146.739 133.696 163.325 133.696 C 178.735 133.696,180.008 133.850,181.269 135.870 C 182.623 138.036,182.355 138.043,99.466 138.043 L 16.304 138.043 16.304 140.761 L 16.304 143.478 200.543 143.478 L 384.783 143.478 384.783 140.761 L 384.783 138.043 297.114 138.043 C 209.515 138.043,209.447 138.042,211.413 135.870 C 213.218 133.876,214.761 133.696,230.060 133.696 L 246.739 133.696 246.739 123.370 L 246.739 113.043 250.000 113.043 C 252.754 113.043,253.261 112.621,253.261 110.326 C 253.261 107.941,253.730 107.609,257.099 107.609 C 259.347 107.609,261.175 106.991,261.509 106.120 C 261.943 104.989,266.832 106.583,281.855 112.757 C 292.732 117.227,302.486 121.133,303.533 121.438 C 305.555 122.028,306.610 70.420,304.600 69.178 C 304.142 68.894,295.460 72.077,285.307 76.250 C 275.154 80.424,265.730 84.290,264.363 84.842 C 262.493 85.597,261.725 85.445,261.258 84.227 C 260.883 83.250,259.227 82.609,257.076 82.609 C 254.429 82.609,253.368 82.051,252.946 80.435 C 252.562 78.966,251.463 78.261,249.558 78.261 C 246.942 78.261,246.739 77.909,246.739 73.370 C 246.739 70.367,246.249 68.478,245.471 68.478 C 244.774 68.478,245.988 66.693,248.170 64.511 C 267.876 44.805,253.326 11.716,225.631 13.251 C 213.847 13.904,205.155 19.290,200.155 29.036 C 198.182 32.883,198.077 32.936,197.299 30.487 C 193.019 17.001,171.293 8.970,157.042 15.606 M174.624 28.006 C 175.313 28.445,173.846 28.849,171.363 28.905 C 162.210 29.108,156.523 34.493,155.399 44.022 L 154.758 49.457 153.909 45.492 C 151.632 34.851,166.140 22.604,174.624 28.006 M232.380 28.096 C 233.232 28.637,231.955 28.988,229.119 28.991 C 219.923 29.002,214.144 34.394,213.008 44.022 L 212.367 49.457 211.499 45.389 C 209.227 34.744,223.815 22.663,232.380 28.096 M207.170 66.193 L 210.076 68.478 198.378 68.478 L 186.680 68.478 191.190 63.585 C 193.671 60.894,196.258 57.468,196.940 55.972 C 198.176 53.258,198.186 53.264,201.222 58.579 C 202.895 61.509,205.572 64.935,207.170 66.193 M154.348 114.674 C 154.348 121.558,153.916 126.087,153.261 126.087 C 152.605 126.087,152.174 121.558,152.174 114.674 C 152.174 107.790,152.605 103.261,153.261 103.261 C 153.916 103.261,154.348 107.790,154.348 114.674 M215.611 105.654 C 216.249 106.672,216.437 107.839,216.028 108.247 C 215.093 109.182,209.783 105.781,209.783 104.247 C 209.783 102.486,214.311 103.579,215.611 105.654 M235.454 104.867 C 237.345 106.754,238.382 110.870,236.966 110.870 C 236.292 110.870,236.046 111.362,236.418 111.965 C 238.475 115.293,229.384 117.318,225.787 114.333 C 223.957 112.814,224.094 107.292,226.019 104.973 C 227.391 103.320,233.832 103.247,235.454 104.867 M211.826 108.013 C 213.995 110.322,214.057 110.665,212.421 111.293 C 210.133 112.171,207.609 110.169,207.609 107.476 C 207.609 104.740,208.906 104.905,211.826 108.013 M19.837 107.413 C 17.596 107.731,17.391 108.333,17.391 114.623 C 17.391 122.303,17.975 122.848,25.272 121.984 C 30.660 121.346,30.882 118.478,25.543 118.478 C 23.451 118.478,21.739 117.989,21.739 117.391 C 21.739 116.793,23.207 116.304,25.000 116.304 C 27.174 116.304,28.261 115.761,28.261 114.674 C 28.261 113.587,27.174 113.043,25.000 113.043 C 23.207 113.043,21.739 112.554,21.739 111.957 C 21.739 111.359,23.451 110.870,25.543 110.870 C 28.067 110.870,29.348 110.361,29.348 109.358 C 29.348 107.797,24.342 106.773,19.837 107.413 M38.315 107.643 C 34.041 109.361,35.688 116.304,40.371 116.304 C 41.411 116.304,42.589 116.832,42.987 117.476 C 43.465 118.249,42.467 118.527,40.062 118.292 C 37.471 118.038,36.413 118.381,36.413 119.475 C 36.413 121.776,42.062 123.325,45.215 121.888 C 49.598 119.892,48.134 113.043,43.325 113.043 C 42.284 113.043,41.087 112.483,40.663 111.799 C 40.133 110.940,40.785 110.725,42.766 111.103 C 47.020 111.916,48.971 109.077,45.156 107.627 C 41.776 106.341,41.551 106.342,38.315 107.643 M331.370 108.618 C 329.359 110.262,329.088 111.004,330.117 112.051 C 331.155 113.106,331.786 113.090,333.132 111.973 C 336.464 109.208,336.206 112.050,332.806 115.557 C 327.950 120.568,328.324 121.739,334.783 121.739 C 338.889 121.739,340.217 121.341,340.217 120.109 C 340.217 119.159,339.230 118.478,337.854 118.478 L 335.491 118.478 337.854 115.963 C 340.867 112.755,340.851 110.350,337.802 108.214 C 334.740 106.070,334.469 106.087,331.370 108.618 M346.146 109.190 C 339.446 115.890,347.167 126.685,354.445 120.792 C 359.391 116.787,356.463 106.522,350.374 106.522 C 349.516 106.522,347.614 107.722,346.146 109.190 M373.641 107.696 C 370.961 109.257,371.174 114.698,373.993 116.673 C 375.403 117.660,375.810 118.521,375.080 118.972 C 373.199 120.135,373.738 121.739,376.008 121.739 C 381.851 121.739,385.121 109.597,379.821 107.582 C 376.425 106.291,376.042 106.298,373.641 107.696 M52.868 109.239 C 52.442 110.348,52.926 110.870,54.382 110.870 C 56.225 110.870,56.522 111.623,56.522 116.304 C 56.522 121.014,56.812 121.739,58.696 121.739 C 60.580 121.739,60.870 121.014,60.870 116.304 C 60.870 112.198,61.268 110.870,62.500 110.870 C 63.397 110.870,64.130 110.136,64.130 109.239 C 64.130 108.012,62.815 107.609,58.812 107.609 C 55.087 107.609,53.306 108.097,52.868 109.239 M362.032 110.246 L 359.555 112.883 361.843 114.312 C 363.270 115.203,364.130 116.868,364.130 118.740 C 364.130 120.681,364.705 121.739,365.761 121.739 C 367.043 121.739,367.391 120.229,367.391 114.674 C 367.391 106.769,366.213 105.796,362.032 110.246 M352.717 114.689 C 352.717 117.203,352.230 117.935,350.558 117.935 C 348.298 117.935,347.181 115.206,348.274 112.356 C 349.410 109.396,352.717 111.133,352.717 114.689 M378.758 111.881 C 379.562 113.182,377.517 114.471,376.069 113.576 C 374.854 112.825,375.652 110.870,377.174 110.870 C 377.701 110.870,378.414 111.325,378.758 111.881 M68.478 120.109 C 68.478 121.228,69.191 121.761,70.380 121.532 C 72.672 121.091,72.527 119.162,70.166 118.670 C 69.181 118.465,68.478 119.064,68.478 120.109 M16.304 130.435 L 16.304 133.714 77.989 133.433 L 139.674 133.152 139.674 130.435 L 139.674 127.717 77.989 127.437 L 16.304 127.156 16.304 130.435 M253.261 130.435 L 253.261 133.713 318.750 133.432 L 384.239 133.152 384.239 130.435 L 384.239 127.717 318.750 127.437 L 253.261 127.157 253.261 130.435 M67.290 160.322 L 61.957 166.839 61.957 188.753 L 61.957 210.668 67.309 215.481 L 72.662 220.293 85.320 217.481 L 97.978 214.669 103.337 208.169 L 108.696 201.670 108.696 183.131 L 108.696 164.592 103.533 159.529 L 98.370 154.466 85.497 154.135 L 72.624 153.804 67.290 160.322 M21.772 162.451 L 16.304 170.554 16.304 195.540 L 16.304 220.526 21.856 226.839 C 24.910 230.311,27.722 233.088,28.106 233.010 C 28.490 232.932,33.718 231.360,39.723 229.515 L 50.641 226.162 53.055 216.070 C 56.077 203.441,56.107 203.721,52.027 206.626 C 38.673 216.135,32.603 211.888,32.615 193.044 C 32.626 174.129,37.388 168.592,49.893 172.952 C 55.252 174.820,55.262 174.692,50.987 158.424 L 49.916 154.348 38.578 154.348 L 27.240 154.348 21.772 162.451 M114.812 156.250 C 116.193 159.124,116.615 202.507,115.308 207.241 C 113.923 212.255,113.193 211.946,122.826 210.430 C 129.116 209.440,130.863 208.785,130.474 207.563 C 130.197 206.691,129.817 199.375,129.629 191.304 L 129.288 176.630 136.257 192.283 C 142.061 205.318,143.408 207.590,144.308 205.870 C 144.903 204.734,148.016 197.690,151.227 190.217 L 157.065 176.630 157.376 188.509 C 157.546 195.042,157.180 201.839,156.562 203.612 L 155.438 206.836 162.774 206.143 C 166.808 205.762,171.184 205.447,172.498 205.443 C 174.668 205.435,174.785 205.142,173.776 202.247 C 173.109 200.336,172.805 190.103,173.017 176.702 L 173.370 154.346 163.559 154.347 L 153.749 154.348 149.021 165.217 C 146.420 171.196,144.163 176.087,144.005 176.087 C 143.847 176.087,141.630 171.196,139.077 165.217 L 134.436 154.348 124.167 154.348 C 114.763 154.348,113.975 154.508,114.812 156.250 M181.645 157.496 C 182.969 161.292,182.455 200.699,181.043 203.707 C 180.110 205.696,180.475 205.752,189.694 205.044 C 200.863 204.185,200.385 204.414,198.943 200.623 C 198.329 199.007,197.826 195.515,197.826 192.864 L 197.826 188.043 206.446 188.043 L 215.066 188.043 220.704 182.859 L 226.343 177.674 226.343 170.802 C 226.343 164.161,226.184 163.769,221.641 159.139 L 216.939 154.348 198.743 154.348 L 180.548 154.348 181.645 157.496 M238.361 156.533 C 238.949 158.780,228.544 197.583,226.158 202.041 C 224.444 205.244,224.131 205.086,233.967 205.997 L 242.391 206.777 242.408 202.573 C 242.434 195.949,243.359 195.241,251.065 195.940 C 259.168 196.674,259.160 196.668,259.280 203.042 L 259.376 208.132 268.525 209.432 C 278.759 210.886,278.912 210.856,277.239 207.731 C 275.035 203.612,264.021 158.579,264.697 156.450 C 265.332 154.447,264.711 154.348,251.577 154.348 C 238.302 154.348,237.811 154.429,238.361 156.533 M283.351 156.793 C 284.471 159.879,284.527 206.283,283.413 209.314 C 282.703 211.247,298.500 215.753,299.385 213.871 C 299.458 213.715,299.260 206.173,298.944 197.112 C 298.628 188.050,298.614 180.794,298.913 180.987 C 299.212 181.179,303.571 189.629,308.599 199.764 L 317.741 218.192 322.728 219.333 C 325.470 219.961,327.800 220.388,327.905 220.283 C 328.010 220.178,328.299 206.400,328.547 189.666 C 328.795 172.931,329.378 158.139,329.843 156.793 C 330.674 154.389,330.540 154.348,321.893 154.348 L 313.097 154.348 314.157 157.136 C 314.740 158.669,315.217 165.070,315.217 171.359 L 315.217 182.794 310.749 174.277 C 308.291 169.593,304.831 163.193,303.060 160.054 L 299.840 154.348 291.151 154.348 C 282.602 154.348,282.476 154.387,283.351 156.793 M331.522 154.829 C 331.522 155.094,332.473 156.928,333.635 158.905 C 334.798 160.882,339.007 170.815,342.990 180.978 L 350.231 199.457 349.647 209.783 C 349.327 215.462,348.746 221.366,348.356 222.903 C 347.669 225.612,347.950 225.788,357.620 228.690 C 369.359 232.213,368.813 232.435,366.821 224.949 C 363.089 210.928,369.556 182.885,382.128 158.574 C 382.990 156.907,383.696 155.274,383.696 154.945 C 383.696 154.617,379.783 154.348,375.000 154.348 C 366.469 154.348,366.304 154.399,366.304 157.043 C 366.304 159.902,359.721 178.261,358.696 178.261 C 357.670 178.261,351.087 159.902,351.087 157.043 C 351.087 154.374,350.993 154.348,341.304 154.348 C 335.924 154.348,331.522 154.564,331.522 154.829 M206.901 166.242 C 213.802 168.866,210.610 176.087,202.549 176.087 L 197.826 176.087 197.826 171.377 C 197.826 164.933,200.090 163.652,206.901 166.242 M253.216 175.000 C 253.943 178.288,254.772 181.834,255.059 182.880 C 255.484 184.430,254.874 184.783,251.768 184.783 C 246.669 184.783,246.495 184.220,248.593 174.548 C 250.533 165.611,251.153 165.671,253.216 175.000 M91.033 170.455 C 96.167 176.877,91.750 201.212,85.224 202.459 C 76.592 204.110,74.382 171.734,82.911 168.579 C 85.875 167.483,89.286 168.271,91.033 170.455 M159.239 217.462 C 103.017 222.547,17.053 245.592,21.727 254.325 C 23.254 257.179,23.026 257.215,34.323 252.316 C 127.389 211.963,265.688 211.546,363.991 251.323 C 377.207 256.671,379.250 256.895,379.331 253.007 C 379.435 248.041,320.766 229.500,285.497 223.354 C 250.999 217.342,191.339 214.558,159.239 217.462 M173.913 226.828 C 112.684 230.298,12.765 256.856,27.252 265.809 C 27.893 266.205,32.062 264.941,36.515 262.999 C 40.969 261.057,44.790 259.661,45.006 259.897 C 45.223 260.133,47.462 264.484,49.982 269.565 C 110.857 392.287,286.826 393.984,349.507 272.453 C 352.947 265.783,355.878 260.176,356.021 259.993 C 356.164 259.811,360.045 261.241,364.645 263.171 C 371.613 266.096,373.171 266.424,373.987 265.135 C 375.852 262.189,374.949 261.394,364.943 257.171 C 311.346 234.552,239.363 223.119,173.913 226.828 M246.276 234.250 C 260.875 235.697,276.219 237.813,276.875 238.469 C 277.798 239.392,265.513 254.884,259.609 260.244 C 220.439 295.804,157.116 288.604,128.200 245.302 C 122.862 237.309,121.918 237.929,143.295 235.381 C 176.654 231.405,213.490 231.001,246.276 234.250 M120.537 243.758 C 153.676 302.492,244.297 303.363,279.463 245.285 C 281.492 241.934,283.735 239.178,284.447 239.161 C 291.495 238.993,273.099 262.710,256.607 275.053 C 220.578 302.020,166.218 298.506,132.885 267.056 C 123.421 258.127,112.173 242.505,113.575 240.237 C 115.057 237.839,118.051 239.354,120.537 243.758 M199.792 240.801 C 199.449 241.377,198.828 243.438,198.411 245.380 C 197.675 248.810,197.489 248.914,192.033 248.929 L 186.413 248.945 190.663 252.541 C 194.750 255.999,194.864 256.274,193.652 259.752 C 191.738 265.242,192.064 265.578,196.226 262.403 L 200.060 259.478 204.048 262.316 C 208.916 265.779,209.126 265.624,207.155 260.038 L 205.592 255.607 209.310 253.075 C 214.236 249.721,214.011 248.913,208.152 248.913 C 204.990 248.913,203.244 248.433,203.212 247.554 C 203.122 245.065,200.424 239.738,199.792 240.801 M109.323 246.467 C 148.941 314.474,248.949 316.224,288.043 249.595 C 292.906 241.308,292.957 241.263,296.739 241.922 C 301.744 242.794,301.781 242.866,299.605 247.431 C 298.575 249.590,297.876 251.434,298.051 251.529 C 298.226 251.624,299.209 252.344,300.236 253.128 C 301.893 254.395,302.378 253.987,304.564 249.486 C 306.949 244.577,307.147 244.440,310.850 245.132 C 315.871 246.070,315.786 245.690,312.454 252.265 C 309.686 257.726,309.640 258.077,311.502 259.438 C 314.394 261.553,314.550 261.430,317.922 254.374 C 320.756 248.445,321.271 247.936,323.829 248.536 C 328.318 249.590,328.399 250.244,324.938 257.562 C 322.074 263.618,321.854 264.711,323.222 266.079 C 325.483 268.340,326.819 267.039,330.447 259.038 C 333.552 252.189,336.693 250.461,340.007 253.776 C 342.883 256.652,321.667 288.229,307.118 302.728 C 247.799 361.838,155.731 362.408,94.977 304.042 C 76.378 286.173,56.716 255.087,62.589 252.834 C 66.206 251.446,67.326 252.402,70.728 259.783 C 74.488 267.940,74.681 268.116,77.573 266.001 C 79.353 264.699,79.256 264.168,76.058 257.723 C 72.508 250.567,72.634 249.509,77.174 248.408 C 79.574 247.826,80.117 248.292,81.829 252.407 C 84.902 259.797,86.344 261.271,88.924 259.660 C 91.064 258.323,91.056 258.237,88.268 252.553 C 85.130 246.155,85.174 245.954,89.943 245.000 C 93.093 244.370,93.483 244.656,95.864 249.342 C 98.354 254.241,98.472 254.318,100.895 252.621 C 103.219 250.993,103.270 250.719,101.688 248.306 C 99.330 244.706,99.583 242.623,102.446 242.071 C 103.791 241.812,105.212 241.534,105.603 241.452 C 105.995 241.371,107.669 243.628,109.323 246.467 M163.668 245.380 C 162.948 248.569,162.482 248.917,158.881 248.952 L 154.891 248.991 158.027 251.555 C 160.900 253.905,161.062 254.405,159.970 257.539 L 158.777 260.959 161.871 258.756 L 164.965 256.554 167.884 258.850 L 170.802 261.146 170.077 257.279 C 169.475 254.071,169.740 253.170,171.632 251.988 C 174.819 249.998,174.475 248.913,170.655 248.913 C 168.005 248.913,167.124 248.254,165.932 245.380 L 164.466 241.848 163.668 245.380 M234.239 245.652 C 233.602 248.552,233.081 248.914,229.533 248.918 L 225.543 248.924 228.703 251.452 C 231.621 253.787,231.770 254.246,230.649 257.462 C 229.371 261.127,229.988 261.226,233.800 257.970 C 235.286 256.700,235.964 256.827,238.545 258.856 L 241.555 261.225 240.780 257.697 C 240.157 254.861,240.490 253.655,242.475 251.541 L 244.944 248.913 241.600 248.913 C 238.862 248.913,238.050 248.322,237.119 245.652 C 236.494 243.859,235.752 242.391,235.469 242.391 C 235.186 242.391,234.633 243.859,234.239 245.652 M350.000 257.755 C 350.000 260.265,338.639 280.900,332.449 289.634 C 274.682 371.137,156.458 380.508,85.326 309.223 C 66.970 290.827,45.910 256.508,52.989 256.527 C 54.297 256.530,56.537 259.767,60.159 266.884 C 118.631 381.802,284.014 380.695,341.392 265.002 C 345.595 256.527,350.000 252.819,350.000 257.755 M99.457 269.629 C 95.272 273.171,90.992 276.351,89.946 276.695 C 87.414 277.527,87.547 279.222,90.379 282.237 L 92.715 284.724 96.423 281.468 C 100.119 278.223,102.174 278.071,102.174 281.042 C 102.174 283.128,103.254 282.985,106.522 280.465 C 109.208 278.393,109.214 278.351,107.065 276.758 C 105.409 275.530,105.192 274.841,106.155 273.864 C 107.734 272.262,109.420 273.264,111.840 277.243 L 113.720 280.336 115.543 277.250 C 117.349 274.193,117.324 274.113,112.938 268.604 C 107.588 261.885,108.706 261.800,99.457 269.629 M288.110 267.643 C 281.561 276.548,289.820 286.745,297.912 279.745 C 302.588 275.700,304.467 279.630,300.040 284.198 L 296.574 287.773 300.094 289.000 C 302.030 289.675,303.736 290.103,303.886 289.951 C 314.680 279.013,308.070 263.680,296.488 272.790 C 293.978 274.765,292.391 274.740,292.391 272.728 C 292.391 272.276,293.617 270.450,295.114 268.670 L 297.837 265.434 294.612 264.310 C 291.586 263.255,291.187 263.459,288.110 267.643 M276.902 280.408 C 274.341 282.429,273.908 283.573,273.878 288.394 C 273.842 294.265,273.165 294.210,269.547 288.043 C 268.744 286.676,268.121 286.878,265.675 289.297 L 262.760 292.180 269.152 299.639 C 272.667 303.742,276.346 308.314,277.327 309.799 L 279.111 312.500 281.903 309.906 L 284.696 307.311 281.478 303.408 C 275.661 296.351,277.647 294.717,285.486 300.110 L 290.386 303.481 293.019 301.008 C 296.543 297.698,296.652 297.873,288.070 293.046 L 280.537 288.810 280.214 283.429 L 279.891 278.049 276.902 280.408 M117.716 284.001 C 115.802 286.523,112.053 290.849,109.385 293.614 L 104.533 298.641 107.787 301.047 C 109.576 302.370,111.139 303.287,111.259 303.085 C 112.225 301.460,124.770 287.129,126.413 285.773 C 128.454 284.087,128.433 283.989,125.519 281.697 C 121.666 278.666,121.793 278.628,117.716 284.001 M133.696 290.557 C 133.696 291.342,130.749 296.302,127.147 301.581 C 123.545 306.859,120.733 311.281,120.897 311.406 C 121.061 311.532,123.840 313.393,127.073 315.542 L 132.950 319.448 135.846 317.061 L 138.743 314.674 135.659 313.361 C 130.374 311.110,132.228 303.796,140.072 295.953 C 141.580 294.445,141.427 294.023,138.536 291.710 C 134.889 288.792,133.696 288.507,133.696 290.557 M247.011 299.955 C 239.729 303.400,239.402 303.802,241.741 306.436 C 242.579 307.380,245.149 312.345,247.453 317.469 L 251.642 326.785 255.169 325.346 C 259.245 323.683,259.266 323.620,256.946 320.079 C 253.697 315.121,256.035 313.232,260.302 317.368 C 263.790 320.749,264.212 320.882,267.332 319.590 C 271.526 317.852,271.493 317.519,266.746 313.731 C 263.599 311.220,262.945 310.061,263.382 307.772 C 264.098 304.026,261.449 299.079,258.029 297.779 C 254.354 296.382,254.713 296.311,247.011 299.955 M147.793 311.141 C 145.727 317.269,143.885 322.844,143.699 323.531 C 143.513 324.218,144.726 325.235,146.395 325.791 C 149.387 326.788,149.460 326.705,151.780 319.651 C 153.904 313.191,154.143 312.868,154.251 316.304 C 154.318 318.397,154.678 321.961,155.052 324.226 L 155.732 328.343 160.919 322.595 L 166.106 316.848 164.278 322.283 C 163.273 325.272,162.065 328.330,161.595 329.078 C 160.815 330.317,164.566 332.609,167.372 332.609 C 167.882 332.609,169.872 327.840,171.795 322.011 C 173.718 316.182,175.768 310.810,176.350 310.072 C 177.368 308.785,176.810 308.435,169.790 305.962 C 169.016 305.690,166.862 307.200,165.002 309.319 C 161.150 313.706,159.827 312.944,159.799 306.323 C 159.782 302.238,159.806 302.259,153.220 300.457 C 151.952 300.110,150.645 302.683,147.793 311.141 M256.008 305.482 C 256.860 306.861,254.613 309.783,252.701 309.783 C 251.108 309.783,249.701 306.798,250.604 305.337 C 251.439 303.986,255.145 304.086,256.008 305.482 M224.416 307.845 C 218.766 309.212,216.017 313.466,217.397 318.706 C 217.915 320.673,218.878 324.358,219.536 326.895 C 220.693 331.356,224.844 335.036,227.717 334.149 C 228.315 333.964,230.880 333.279,233.417 332.627 C 240.495 330.808,241.826 327.377,239.171 317.801 C 236.213 307.134,233.874 305.556,224.416 307.845 M183.092 322.826 C 187.158 338.862,189.568 340.469,192.924 329.383 C 194.741 323.382,196.731 321.557,196.745 325.879 C 196.762 330.998,199.051 335.870,201.440 335.870 C 203.531 335.870,213.127 312.765,211.650 311.287 C 209.205 308.843,204.945 310.746,204.112 314.655 C 203.161 319.117,201.092 322.432,201.081 319.511 C 201.040 308.972,194.824 306.257,191.772 315.446 C 189.761 321.501,188.037 320.340,187.805 312.772 C 187.722 310.074,187.326 309.783,183.749 309.783 L 179.785 309.783 183.092 322.826 M231.095 316.960 C 233.327 322.301,232.732 326.536,229.689 326.969 C 227.254 327.315,225.021 322.446,225.006 316.757 C 224.992 311.609,228.914 311.740,231.095 316.960 " stroke="none" fill="#3270f2" fill-rule="evenodd"></path></g></svg>
