<svg xmlns="http://www.w3.org/2000/svg" viewBox="0 0 706.66 116.33"><defs><style>.cls-1{fill:#ed1066;}.cls-2{fill:#fff;}</style></defs><title>Asset 2</title><g id="Layer_2" data-name="Layer 2"><g id="Layer_1-2" data-name="Layer 1"><path class="cls-1" d="M481,42.73h0a7.41,7.41,0,0,0-7.41,7.42V80.42a7.41,7.41,0,1,0,14.83,0V50.15A7.41,7.41,0,0,0,481,42.73"/><path class="cls-1" d="M506.1,11.69a7.41,7.41,0,0,0-7.41,7.42v77a7.41,7.41,0,1,0,14.83,0v-77a7.41,7.41,0,0,0-7.41-7.42"/><path class="cls-1" d="M531.17,0a7.41,7.41,0,0,0-7.41,7.42v101.5a7.41,7.41,0,1,0,14.83,0V7.42A7.41,7.41,0,0,0,531.17,0"/><path class="cls-1" d="M556.24,17.19a7.41,7.41,0,0,0-7.41,7.42V96.11a7.41,7.41,0,0,0,14.83,0V24.6a7.41,7.41,0,0,0-7.41-7.42"/><path class="cls-1" d="M581.32,53.8a7.41,7.41,0,0,0-7.42,7.42V85.36a7.41,7.41,0,1,0,14.83,0V61.21a7.41,7.41,0,0,0-7.41-7.42"/><path class="cls-1" d="M604.63,89.54s0,0,0,0a4.13,4.13,0,0,0,3.32,6.57l94.15,0a4.56,4.56,0,0,0,4.06-6.62c-16.76-33.09-59.89-48.75-70.79-52.25A2.36,2.36,0,0,1,633.94,34C641.8,14.89,626.65,1.69,614,1.69a23.81,23.81,0,0,0-23.15,18.37c-.16.79-.29,1.59-.38,2.38,0,.15,0,.3,0,.45,0,.43-.09.86-.1,1.29C589.76,38,600.6,48.31,600.7,48.41a32.78,32.78,0,0,1,6.85,36.49c-1.11,2.69-1.49,2.33-2.93,4.64m60.13-21.79a7,7,0,1,1-7,7,7,7,0,0,1,7-7"/><path class="cls-2" d="M54.46,71.86A20.14,20.14,0,0,1,51.26,83a21.28,21.28,0,0,1-9.37,7.76A35.13,35.13,0,0,1,27.26,93.6q-10.15,0-16.74-3.83a22.28,22.28,0,0,1-7.6-7.36,16.71,16.71,0,0,1-2.92-9,6.07,6.07,0,0,1,6.22-6.12,5.28,5.28,0,0,1,3.72,1.4,11.06,11.06,0,0,1,2.59,4.16,27.69,27.69,0,0,0,2.83,5.47A11.47,11.47,0,0,0,19.63,82a15.82,15.82,0,0,0,7.25,1.43,16.36,16.36,0,0,0,10-2.87,8.65,8.65,0,0,0,3.86-7.18,7.58,7.58,0,0,0-2.08-5.54,13.4,13.4,0,0,0-5.38-3.25Q30,63.45,24.5,62.19a64.66,64.66,0,0,1-12.36-4,20,20,0,0,1-7.9-6.31A16.38,16.38,0,0,1,1.31,41.9,17.06,17.06,0,0,1,4.39,31.85a19.43,19.43,0,0,1,8.93-6.76,36.56,36.56,0,0,1,13.74-2.36A34,34,0,0,1,38,24.3a23.11,23.11,0,0,1,7.64,4.16,17.37,17.37,0,0,1,4.44,5.45,12.55,12.55,0,0,1,1.4,5.56,6.58,6.58,0,0,1-1.75,4.46,5.59,5.59,0,0,1-4.37,2,5,5,0,0,1-3.62-1.19A16,16,0,0,1,39,40.82a17.69,17.69,0,0,0-4.49-6.05q-2.62-2.17-8.42-2.17A14.58,14.58,0,0,0,17.46,35q-3.3,2.36-3.3,5.68a5.76,5.76,0,0,0,1.12,3.55,9.44,9.44,0,0,0,3.09,2.57,20.7,20.7,0,0,0,4,1.68q2,.61,6.64,1.78a104,104,0,0,1,10.5,3,31.87,31.87,0,0,1,8,4,16.36,16.36,0,0,1,5.14,5.91,18.94,18.94,0,0,1,1.85,8.76"/><path class="cls-2" d="M113.14,67.66a30.22,30.22,0,0,1-1.78,10.52,23.28,23.28,0,0,1-5.14,8.27,22.72,22.72,0,0,1-8,5.31A28.43,28.43,0,0,1,87.66,93.6a27.61,27.61,0,0,1-10.43-1.87A23,23,0,0,1,64.07,78.15a30.07,30.07,0,0,1-1.75-10.5A30.43,30.43,0,0,1,64.09,57a23.08,23.08,0,0,1,5.1-8.23,22.48,22.48,0,0,1,8-5.26,30.43,30.43,0,0,1,20.94,0,22.62,22.62,0,0,1,13.21,13.56,30.35,30.35,0,0,1,1.75,10.52m-12.81,0q0-7.81-3.44-12.15a11.16,11.16,0,0,0-9.23-4.35,11.44,11.44,0,0,0-6.59,1.94,12.32,12.32,0,0,0-4.4,5.73,23.36,23.36,0,0,0-1.54,8.83,23.17,23.17,0,0,0,1.52,8.74A12.54,12.54,0,0,0,81,82.13a11.3,11.3,0,0,0,6.66,2,11.14,11.14,0,0,0,9.23-4.37q3.44-4.37,3.44-12.09"/><path class="cls-2" d="M156.33,86.4V84.77a28.48,28.48,0,0,1-4.82,4.86A17.72,17.72,0,0,1,146,92.55a22.37,22.37,0,0,1-6.82,1,17.65,17.65,0,0,1-8.3-1.92,14,14,0,0,1-5.68-5.28q-2.38-4.07-2.38-11.69V49.33q0-3.83,1.73-5.73a5.91,5.91,0,0,1,4.58-1.89,6.08,6.08,0,0,1,4.67,1.92q1.77,1.92,1.78,5.71V69.76a31.57,31.57,0,0,0,.75,7.46A9,9,0,0,0,139,81.94a7.68,7.68,0,0,0,5.26,1.71,10.7,10.7,0,0,0,6.08-1.92,11.19,11.19,0,0,0,4.16-5q1.07-2.71,1.08-11.87V49.33q0-3.79,1.78-5.71A6,6,0,0,1,162,41.71a5.91,5.91,0,0,1,4.58,1.89q1.73,1.89,1.73,5.73v37a7.89,7.89,0,0,1-1.66,5.47,5.91,5.91,0,0,1-8.6-.07,7.65,7.65,0,0,1-1.71-5.31"/><path class="cls-2" d="M192.61,48.77v1.54A22.36,22.36,0,0,1,200,43.79a19.63,19.63,0,0,1,9.19-2.08,18.32,18.32,0,0,1,9,2.2,14,14,0,0,1,5.94,6.22,14.85,14.85,0,0,1,1.64,5.05,52.19,52.19,0,0,1,.38,6.92V85.84a8.46,8.46,0,0,1-1.75,5.8,6.3,6.3,0,0,1-9.19,0,8.4,8.4,0,0,1-1.78-5.75V64.57q0-6.31-1.75-9.65t-7-3.34a10.35,10.35,0,0,0-6.22,2,11.7,11.7,0,0,0-4.11,5.59q-.93,2.85-.94,10.66v16q0,3.88-1.8,5.82A6.06,6.06,0,0,1,187,93.6a5.78,5.78,0,0,1-4.53-2,8.4,8.4,0,0,1-1.78-5.75V49q0-3.65,1.59-5.45a5.5,5.5,0,0,1,4.35-1.8,5.89,5.89,0,0,1,3,.79,5.69,5.69,0,0,1,2.17,2.38,8.4,8.4,0,0,1,.82,3.88"/><path class="cls-2" d="M273.82,86.31V85a32.55,32.55,0,0,1-5.07,4.79,19.12,19.12,0,0,1-5.42,2.81,20.34,20.34,0,0,1-6.38,1,18.8,18.8,0,0,1-8.49-1.94,19.81,19.81,0,0,1-6.76-5.54,25.24,25.24,0,0,1-4.32-8.46,36.09,36.09,0,0,1-1.47-10.52q0-12,5.84-18.65t15.38-6.68a20.66,20.66,0,0,1,9.3,1.89,25.93,25.93,0,0,1,7.39,5.82V30.68a9.53,9.53,0,0,1,1.57-5.94,5.33,5.33,0,0,1,4.46-2,5.53,5.53,0,0,1,4.46,1.85A8.23,8.23,0,0,1,285.88,30V86.31a7.82,7.82,0,0,1-1.68,5.47,5.65,5.65,0,0,1-4.35,1.82,5.57,5.57,0,0,1-4.32-1.89,7.79,7.79,0,0,1-1.71-5.4m-25.1-18.75a21.77,21.77,0,0,0,1.61,8.83,12.31,12.31,0,0,0,4.42,5.5,10.92,10.92,0,0,0,6.12,1.85A11.3,11.3,0,0,0,267,82a12.06,12.06,0,0,0,4.44-5.37,21.73,21.73,0,0,0,1.66-9,21.15,21.15,0,0,0-1.66-8.76A13.19,13.19,0,0,0,267,53.19a10.73,10.73,0,0,0-6.2-1.94,10.46,10.46,0,0,0-6.26,2,12.76,12.76,0,0,0-4.28,5.7,22.67,22.67,0,0,0-1.52,8.62"/><path class="cls-2" d="M318.23,63.12h-4.86v22q0,4.35-1.92,6.4a6.52,6.52,0,0,1-5,2.06,6.37,6.37,0,0,1-5.14-2.15q-1.82-2.15-1.82-6.31V32.41q0-4.49,2-6.5t6.5-2h22.58a68.6,68.6,0,0,1,8,.4,20.13,20.13,0,0,1,6,1.61,17.35,17.35,0,0,1,5.7,3.88A17,17,0,0,1,354,35.66a19.54,19.54,0,0,1,1.29,7.08q0,7.67-4.32,12.25t-13.11,6.5a25.4,25.4,0,0,1,7.06,5.8,58.92,58.92,0,0,1,6,8.16A60.74,60.74,0,0,1,355,83.25,15.45,15.45,0,0,1,356.51,88a4.9,4.9,0,0,1-.86,2.69,6.07,6.07,0,0,1-2.36,2.1,7.44,7.44,0,0,1-3.46.77,6.73,6.73,0,0,1-3.93-1.1,10.5,10.5,0,0,1-2.74-2.78q-1.15-1.68-3.11-5l-5.56-9.26a50.92,50.92,0,0,0-5.35-7.76,13.21,13.21,0,0,0-4.79-3.65,16.46,16.46,0,0,0-6.12-1m7.95-28.8H313.36V53.16H325.8a34.94,34.94,0,0,0,8.42-.86,9.88,9.88,0,0,0,5.21-2.95,8.47,8.47,0,0,0,1.8-5.73,8.86,8.86,0,0,0-1.45-5,8.77,8.77,0,0,0-4-3.25q-2.43-1-9.58-1"/><path class="cls-2" d="M398.55,86.4a39.56,39.56,0,0,1-9,5.4,25.06,25.06,0,0,1-9.7,1.8,18.37,18.37,0,0,1-8.62-1.94,14.19,14.19,0,0,1-5.73-5.26,13.65,13.65,0,0,1-2-7.2,12.89,12.89,0,0,1,3.32-8.93,16.59,16.59,0,0,1,9.11-5q1.22-.28,6-1.26t8.25-1.8q3.44-.82,7.46-2-.23-5-2-7.41t-7.46-2.36q-4.86,0-7.32,1.36a11.9,11.9,0,0,0-4.21,4.07,43.49,43.49,0,0,1-2.48,3.58q-.72.87-3.11.87A5.43,5.43,0,0,1,367.39,59a4.49,4.49,0,0,1-1.57-3.53,10.8,10.8,0,0,1,2.39-6.55,17.06,17.06,0,0,1,7.43-5.24,33.52,33.52,0,0,1,12.58-2.06q8.42,0,13.23,2a12.31,12.31,0,0,1,6.8,6.29q2,4.3,2,11.41,0,4.49,0,7.62t-.07,7a25.66,25.66,0,0,0,1.19,7.5,23.68,23.68,0,0,1,1.19,5A4.71,4.71,0,0,1,410.68,92a6.2,6.2,0,0,1-4.18,1.61,5.65,5.65,0,0,1-3.88-1.85,27.33,27.33,0,0,1-4.07-5.35m-.84-18.47a64.17,64.17,0,0,1-8.16,2.18q-5.35,1.14-7.41,1.68a10.11,10.11,0,0,0-3.93,2.11,5.39,5.39,0,0,0-1.87,4.37,6.47,6.47,0,0,0,2.2,4.93,8.13,8.13,0,0,0,5.75,2,14.94,14.94,0,0,0,7-1.66A11.06,11.06,0,0,0,396,79.3q1.73-2.9,1.73-9.54Z"/><path class="cls-2" d="M421.5,42.83h1.4V35.17q0-3.09.17-4.84a7.13,7.13,0,0,1,.91-3,5.74,5.74,0,0,1,2.15-2.13,6.1,6.1,0,0,1,3.13-.82,6.3,6.3,0,0,1,4.39,1.82,5.41,5.41,0,0,1,1.66,3,26.94,26.94,0,0,1,.35,5v8.7h4.67a6,6,0,0,1,4.14,1.29,4.24,4.24,0,0,1,1.42,3.29,3.69,3.69,0,0,1-2,3.6A13.21,13.21,0,0,1,438,52h-2.38V75.51a38.13,38.13,0,0,0,.21,4.61A4.7,4.7,0,0,0,437,82.73a3.83,3.83,0,0,0,3,1,15.87,15.87,0,0,0,3-.4,15.77,15.77,0,0,1,3-.4,3.85,3.85,0,0,1,2.78,1.24A4.17,4.17,0,0,1,450,87.25q0,3.08-3.37,4.72T437,93.6q-6,0-9.07-2a9.33,9.33,0,0,1-4-5.56,37.72,37.72,0,0,1-1-9.49V52h-1.68A6.08,6.08,0,0,1,417,50.73a4.27,4.27,0,0,1-1.45-3.32,4.12,4.12,0,0,1,1.52-3.29,6.67,6.67,0,0,1,4.42-1.29"/></g></g></svg>
